G04 #@! TF.GenerationSoftware,KiCad,Pcbnew,(5.1.5-0-10_14)*
G04 #@! TF.CreationDate,2020-05-04T16:50:39-04:00*
G04 #@! TF.ProjectId,hardware,68617264-7761-4726-952e-6b696361645f,rev?*
G04 #@! TF.SameCoordinates,Original*
G04 #@! TF.FileFunction,Legend,Top*
G04 #@! TF.FilePolarity,Positive*
%FSLAX46Y46*%
G04 Gerber Fmt 4.6, Leading zero omitted, Abs format (unit mm)*
G04 Created by KiCad (PCBNEW (5.1.5-0-10_14)) date 2020-05-04 16:50:39*
%MOMM*%
%LPD*%
G04 APERTURE LIST*
%ADD10C,0.150000*%
%ADD11C,0.076200*%
%ADD12C,0.120000*%
%ADD13C,0.152400*%
%ADD14C,0.240000*%
G04 APERTURE END LIST*
D10*
X174862176Y-88403561D02*
X175005033Y-88451180D01*
X175243128Y-88451180D01*
X175338366Y-88403561D01*
X175385985Y-88355942D01*
X175433604Y-88260704D01*
X175433604Y-88165466D01*
X175385985Y-88070228D01*
X175338366Y-88022609D01*
X175243128Y-87974990D01*
X175052652Y-87927371D01*
X174957414Y-87879752D01*
X174909795Y-87832133D01*
X174862176Y-87736895D01*
X174862176Y-87641657D01*
X174909795Y-87546419D01*
X174957414Y-87498800D01*
X175052652Y-87451180D01*
X175290747Y-87451180D01*
X175433604Y-87498800D01*
X175862176Y-87784514D02*
X175862176Y-88784514D01*
X175862176Y-87832133D02*
X175957414Y-87784514D01*
X176147890Y-87784514D01*
X176243128Y-87832133D01*
X176290747Y-87879752D01*
X176338366Y-87974990D01*
X176338366Y-88260704D01*
X176290747Y-88355942D01*
X176243128Y-88403561D01*
X176147890Y-88451180D01*
X175957414Y-88451180D01*
X175862176Y-88403561D01*
X176909795Y-88451180D02*
X176814557Y-88403561D01*
X176766938Y-88308323D01*
X176766938Y-87451180D01*
X177290747Y-88451180D02*
X177290747Y-87784514D01*
X177290747Y-87451180D02*
X177243128Y-87498800D01*
X177290747Y-87546419D01*
X177338366Y-87498800D01*
X177290747Y-87451180D01*
X177290747Y-87546419D01*
X177624080Y-87784514D02*
X178005033Y-87784514D01*
X177766938Y-87451180D02*
X177766938Y-88308323D01*
X177814557Y-88403561D01*
X177909795Y-88451180D01*
X178005033Y-88451180D01*
X179576461Y-88451180D02*
X179100271Y-88451180D01*
X179100271Y-87451180D01*
X180290747Y-88403561D02*
X180195509Y-88451180D01*
X180005033Y-88451180D01*
X179909795Y-88403561D01*
X179862176Y-88308323D01*
X179862176Y-87927371D01*
X179909795Y-87832133D01*
X180005033Y-87784514D01*
X180195509Y-87784514D01*
X180290747Y-87832133D01*
X180338366Y-87927371D01*
X180338366Y-88022609D01*
X179862176Y-88117847D01*
X180624080Y-87784514D02*
X181005033Y-87784514D01*
X180766938Y-88451180D02*
X180766938Y-87594038D01*
X180814557Y-87498800D01*
X180909795Y-87451180D01*
X181005033Y-87451180D01*
X181195509Y-87784514D02*
X181576461Y-87784514D01*
X181338366Y-87451180D02*
X181338366Y-88308323D01*
X181385985Y-88403561D01*
X181481223Y-88451180D01*
X181576461Y-88451180D01*
X182528842Y-87451180D02*
X182862176Y-88451180D01*
X183195509Y-87451180D01*
X184052652Y-88451180D02*
X183481223Y-88451180D01*
X183766938Y-88451180D02*
X183766938Y-87451180D01*
X183671700Y-87594038D01*
X183576461Y-87689276D01*
X183481223Y-87736895D01*
X184481223Y-88355942D02*
X184528842Y-88403561D01*
X184481223Y-88451180D01*
X184433604Y-88403561D01*
X184481223Y-88355942D01*
X184481223Y-88451180D01*
X185147890Y-87451180D02*
X185243128Y-87451180D01*
X185338366Y-87498800D01*
X185385985Y-87546419D01*
X185433604Y-87641657D01*
X185481223Y-87832133D01*
X185481223Y-88070228D01*
X185433604Y-88260704D01*
X185385985Y-88355942D01*
X185338366Y-88403561D01*
X185243128Y-88451180D01*
X185147890Y-88451180D01*
X185052652Y-88403561D01*
X185005033Y-88355942D01*
X184957414Y-88260704D01*
X184909795Y-88070228D01*
X184909795Y-87832133D01*
X184957414Y-87641657D01*
X185005033Y-87546419D01*
X185052652Y-87498800D01*
X185147890Y-87451180D01*
X174909795Y-90101180D02*
X174909795Y-89101180D01*
X175147890Y-89101180D01*
X175290747Y-89148800D01*
X175385985Y-89244038D01*
X175433604Y-89339276D01*
X175481223Y-89529752D01*
X175481223Y-89672609D01*
X175433604Y-89863085D01*
X175385985Y-89958323D01*
X175290747Y-90053561D01*
X175147890Y-90101180D01*
X174909795Y-90101180D01*
X176290747Y-90053561D02*
X176195509Y-90101180D01*
X176005033Y-90101180D01*
X175909795Y-90053561D01*
X175862176Y-89958323D01*
X175862176Y-89577371D01*
X175909795Y-89482133D01*
X176005033Y-89434514D01*
X176195509Y-89434514D01*
X176290747Y-89482133D01*
X176338366Y-89577371D01*
X176338366Y-89672609D01*
X175862176Y-89767847D01*
X176719319Y-90053561D02*
X176814557Y-90101180D01*
X177005033Y-90101180D01*
X177100271Y-90053561D01*
X177147890Y-89958323D01*
X177147890Y-89910704D01*
X177100271Y-89815466D01*
X177005033Y-89767847D01*
X176862176Y-89767847D01*
X176766938Y-89720228D01*
X176719319Y-89624990D01*
X176719319Y-89577371D01*
X176766938Y-89482133D01*
X176862176Y-89434514D01*
X177005033Y-89434514D01*
X177100271Y-89482133D01*
X177576461Y-90101180D02*
X177576461Y-89434514D01*
X177576461Y-89529752D02*
X177624080Y-89482133D01*
X177719319Y-89434514D01*
X177862176Y-89434514D01*
X177957414Y-89482133D01*
X178005033Y-89577371D01*
X178005033Y-90101180D01*
X178005033Y-89577371D02*
X178052652Y-89482133D01*
X178147890Y-89434514D01*
X178290747Y-89434514D01*
X178385985Y-89482133D01*
X178433604Y-89577371D01*
X178433604Y-90101180D01*
X179052652Y-90101180D02*
X178957414Y-90053561D01*
X178909795Y-90005942D01*
X178862176Y-89910704D01*
X178862176Y-89624990D01*
X178909795Y-89529752D01*
X178957414Y-89482133D01*
X179052652Y-89434514D01*
X179195509Y-89434514D01*
X179290747Y-89482133D01*
X179338366Y-89529752D01*
X179385985Y-89624990D01*
X179385985Y-89910704D01*
X179338366Y-90005942D01*
X179290747Y-90053561D01*
X179195509Y-90101180D01*
X179052652Y-90101180D01*
X179814557Y-89434514D02*
X179814557Y-90101180D01*
X179814557Y-89529752D02*
X179862176Y-89482133D01*
X179957414Y-89434514D01*
X180100271Y-89434514D01*
X180195509Y-89482133D01*
X180243128Y-89577371D01*
X180243128Y-90101180D01*
X181147890Y-90101180D02*
X181147890Y-89101180D01*
X181147890Y-90053561D02*
X181052652Y-90101180D01*
X180862176Y-90101180D01*
X180766938Y-90053561D01*
X180719319Y-90005942D01*
X180671700Y-89910704D01*
X180671700Y-89624990D01*
X180719319Y-89529752D01*
X180766938Y-89482133D01*
X180862176Y-89434514D01*
X181052652Y-89434514D01*
X181147890Y-89482133D01*
X182909795Y-89148800D02*
X182814557Y-89101180D01*
X182671700Y-89101180D01*
X182528842Y-89148800D01*
X182433604Y-89244038D01*
X182385985Y-89339276D01*
X182338366Y-89529752D01*
X182338366Y-89672609D01*
X182385985Y-89863085D01*
X182433604Y-89958323D01*
X182528842Y-90053561D01*
X182671700Y-90101180D01*
X182766938Y-90101180D01*
X182909795Y-90053561D01*
X182957414Y-90005942D01*
X182957414Y-89672609D01*
X182766938Y-89672609D01*
X183528842Y-90101180D02*
X183433604Y-90053561D01*
X183385985Y-90005942D01*
X183338366Y-89910704D01*
X183338366Y-89624990D01*
X183385985Y-89529752D01*
X183433604Y-89482133D01*
X183528842Y-89434514D01*
X183671700Y-89434514D01*
X183766938Y-89482133D01*
X183814557Y-89529752D01*
X183862176Y-89624990D01*
X183862176Y-89910704D01*
X183814557Y-90005942D01*
X183766938Y-90053561D01*
X183671700Y-90101180D01*
X183528842Y-90101180D01*
X184433604Y-90101180D02*
X184338366Y-90053561D01*
X184290747Y-90005942D01*
X184243128Y-89910704D01*
X184243128Y-89624990D01*
X184290747Y-89529752D01*
X184338366Y-89482133D01*
X184433604Y-89434514D01*
X184576461Y-89434514D01*
X184671700Y-89482133D01*
X184719319Y-89529752D01*
X184766938Y-89624990D01*
X184766938Y-89910704D01*
X184719319Y-90005942D01*
X184671700Y-90053561D01*
X184576461Y-90101180D01*
X184433604Y-90101180D01*
X185624080Y-90101180D02*
X185624080Y-89101180D01*
X185624080Y-90053561D02*
X185528842Y-90101180D01*
X185338366Y-90101180D01*
X185243128Y-90053561D01*
X185195509Y-90005942D01*
X185147890Y-89910704D01*
X185147890Y-89624990D01*
X185195509Y-89529752D01*
X185243128Y-89482133D01*
X185338366Y-89434514D01*
X185528842Y-89434514D01*
X185624080Y-89482133D01*
X179764180Y-80690980D02*
X179430847Y-80214790D01*
X179192752Y-80690980D02*
X179192752Y-79690980D01*
X179573704Y-79690980D01*
X179668942Y-79738600D01*
X179716561Y-79786219D01*
X179764180Y-79881457D01*
X179764180Y-80024314D01*
X179716561Y-80119552D01*
X179668942Y-80167171D01*
X179573704Y-80214790D01*
X179192752Y-80214790D01*
X180192752Y-80167171D02*
X180526085Y-80167171D01*
X180668942Y-80690980D02*
X180192752Y-80690980D01*
X180192752Y-79690980D01*
X180668942Y-79690980D01*
X181049895Y-80643361D02*
X181192752Y-80690980D01*
X181430847Y-80690980D01*
X181526085Y-80643361D01*
X181573704Y-80595742D01*
X181621323Y-80500504D01*
X181621323Y-80405266D01*
X181573704Y-80310028D01*
X181526085Y-80262409D01*
X181430847Y-80214790D01*
X181240371Y-80167171D01*
X181145133Y-80119552D01*
X181097514Y-80071933D01*
X181049895Y-79976695D01*
X181049895Y-79881457D01*
X181097514Y-79786219D01*
X181145133Y-79738600D01*
X181240371Y-79690980D01*
X181478466Y-79690980D01*
X181621323Y-79738600D01*
X182049895Y-80167171D02*
X182383228Y-80167171D01*
X182526085Y-80690980D02*
X182049895Y-80690980D01*
X182049895Y-79690980D01*
X182526085Y-79690980D01*
X182811800Y-79690980D02*
X183383228Y-79690980D01*
X183097514Y-80690980D02*
X183097514Y-79690980D01*
X184430847Y-79643361D02*
X183573704Y-80929076D01*
X184764180Y-80690980D02*
X184764180Y-79690980D01*
X185145133Y-79690980D01*
X185240371Y-79738600D01*
X185287990Y-79786219D01*
X185335609Y-79881457D01*
X185335609Y-80024314D01*
X185287990Y-80119552D01*
X185240371Y-80167171D01*
X185145133Y-80214790D01*
X184764180Y-80214790D01*
X185668942Y-79690980D02*
X185907038Y-80690980D01*
X186097514Y-79976695D01*
X186287990Y-80690980D01*
X186526085Y-79690980D01*
X187478466Y-80690980D02*
X187145133Y-80214790D01*
X186907038Y-80690980D02*
X186907038Y-79690980D01*
X187287990Y-79690980D01*
X187383228Y-79738600D01*
X187430847Y-79786219D01*
X187478466Y-79881457D01*
X187478466Y-80024314D01*
X187430847Y-80119552D01*
X187383228Y-80167171D01*
X187287990Y-80214790D01*
X186907038Y-80214790D01*
X182713261Y-45005476D02*
X182760880Y-44862619D01*
X182760880Y-44624523D01*
X182713261Y-44529285D01*
X182665642Y-44481666D01*
X182570404Y-44434047D01*
X182475166Y-44434047D01*
X182379928Y-44481666D01*
X182332309Y-44529285D01*
X182284690Y-44624523D01*
X182237071Y-44815000D01*
X182189452Y-44910238D01*
X182141833Y-44957857D01*
X182046595Y-45005476D01*
X181951357Y-45005476D01*
X181856119Y-44957857D01*
X181808500Y-44910238D01*
X181760880Y-44815000D01*
X181760880Y-44576904D01*
X181808500Y-44434047D01*
X182665642Y-43434047D02*
X182713261Y-43481666D01*
X182760880Y-43624523D01*
X182760880Y-43719761D01*
X182713261Y-43862619D01*
X182618023Y-43957857D01*
X182522785Y-44005476D01*
X182332309Y-44053095D01*
X182189452Y-44053095D01*
X181998976Y-44005476D01*
X181903738Y-43957857D01*
X181808500Y-43862619D01*
X181760880Y-43719761D01*
X181760880Y-43624523D01*
X181808500Y-43481666D01*
X181856119Y-43434047D01*
X182760880Y-42529285D02*
X182760880Y-43005476D01*
X181760880Y-43005476D01*
X180998761Y-45029285D02*
X181046380Y-44886428D01*
X181046380Y-44648333D01*
X180998761Y-44553095D01*
X180951142Y-44505476D01*
X180855904Y-44457857D01*
X180760666Y-44457857D01*
X180665428Y-44505476D01*
X180617809Y-44553095D01*
X180570190Y-44648333D01*
X180522571Y-44838809D01*
X180474952Y-44934047D01*
X180427333Y-44981666D01*
X180332095Y-45029285D01*
X180236857Y-45029285D01*
X180141619Y-44981666D01*
X180094000Y-44934047D01*
X180046380Y-44838809D01*
X180046380Y-44600714D01*
X180094000Y-44457857D01*
X181046380Y-44029285D02*
X180046380Y-44029285D01*
X180046380Y-43791190D01*
X180094000Y-43648333D01*
X180189238Y-43553095D01*
X180284476Y-43505476D01*
X180474952Y-43457857D01*
X180617809Y-43457857D01*
X180808285Y-43505476D01*
X180903523Y-43553095D01*
X180998761Y-43648333D01*
X181046380Y-43791190D01*
X181046380Y-44029285D01*
X180760666Y-43076904D02*
X180760666Y-42600714D01*
X181046380Y-43172142D02*
X180046380Y-42838809D01*
X181046380Y-42505476D01*
D11*
X179189742Y-31167009D02*
X178899457Y-31167009D01*
X179044600Y-31167009D02*
X179044600Y-30659009D01*
X178996219Y-30731580D01*
X178947838Y-30779961D01*
X178899457Y-30804152D01*
X179673552Y-31167009D02*
X179383266Y-31167009D01*
X179528409Y-31167009D02*
X179528409Y-30659009D01*
X179480028Y-30731580D01*
X179431647Y-30779961D01*
X179383266Y-30804152D01*
X180133171Y-30659009D02*
X179891266Y-30659009D01*
X179867076Y-30900914D01*
X179891266Y-30876723D01*
X179939647Y-30852533D01*
X180060600Y-30852533D01*
X180108980Y-30876723D01*
X180133171Y-30900914D01*
X180157361Y-30949295D01*
X180157361Y-31070247D01*
X180133171Y-31118628D01*
X180108980Y-31142819D01*
X180060600Y-31167009D01*
X179939647Y-31167009D01*
X179891266Y-31142819D01*
X179867076Y-31118628D01*
X180762123Y-31167009D02*
X180762123Y-30828342D01*
X180762123Y-30876723D02*
X180786314Y-30852533D01*
X180834695Y-30828342D01*
X180907266Y-30828342D01*
X180955647Y-30852533D01*
X180979838Y-30900914D01*
X180979838Y-31167009D01*
X180979838Y-30900914D02*
X181004028Y-30852533D01*
X181052409Y-30828342D01*
X181124980Y-30828342D01*
X181173361Y-30852533D01*
X181197552Y-30900914D01*
X181197552Y-31167009D01*
X181439457Y-31167009D02*
X181439457Y-30828342D01*
X181439457Y-30659009D02*
X181415266Y-30683200D01*
X181439457Y-30707390D01*
X181463647Y-30683200D01*
X181439457Y-30659009D01*
X181439457Y-30707390D01*
X181753933Y-31167009D02*
X181705552Y-31142819D01*
X181681361Y-31094438D01*
X181681361Y-30659009D01*
X181711600Y-31699200D02*
X181711600Y-31445200D01*
X178790600Y-31699200D02*
X178790600Y-31445200D01*
X178790600Y-31572200D02*
X181711600Y-31572200D01*
D12*
X167476501Y-76923924D02*
X167476501Y-77398924D01*
X171696501Y-73178924D02*
X171221501Y-73178924D01*
X171696501Y-73653924D02*
X171696501Y-73178924D01*
X171696501Y-77398924D02*
X171221501Y-77398924D01*
X171696501Y-76923924D02*
X171696501Y-77398924D01*
X167476501Y-73178924D02*
X167951501Y-73178924D01*
X167476501Y-73653924D02*
X167476501Y-73178924D01*
D10*
X64150000Y-31100000D02*
X64150000Y-32100000D01*
X63150000Y-45100000D02*
X64150000Y-45100000D01*
X64150000Y-31100000D02*
X63150000Y-31100000D01*
X64150000Y-44100000D02*
X64150000Y-45100000D01*
X50150000Y-45100000D02*
X50150000Y-44100000D01*
X51150000Y-31100000D02*
X50150000Y-31100000D01*
X50150000Y-45100000D02*
X51150000Y-45100000D01*
X50150000Y-32100000D02*
X50150000Y-31100000D01*
X64150000Y-50150000D02*
X64150000Y-51150000D01*
X63150000Y-64150000D02*
X64150000Y-64150000D01*
X64150000Y-50150000D02*
X63150000Y-50150000D01*
X64150000Y-63150000D02*
X64150000Y-64150000D01*
X50150000Y-64150000D02*
X50150000Y-63150000D01*
X51150000Y-50150000D02*
X50150000Y-50150000D01*
X50150000Y-64150000D02*
X51150000Y-64150000D01*
X50150000Y-51150000D02*
X50150000Y-50150000D01*
X64150000Y-69200000D02*
X64150000Y-70200000D01*
X63150000Y-83200000D02*
X64150000Y-83200000D01*
X64150000Y-69200000D02*
X63150000Y-69200000D01*
X64150000Y-82200000D02*
X64150000Y-83200000D01*
X50150000Y-83200000D02*
X50150000Y-82200000D01*
X51150000Y-69200000D02*
X50150000Y-69200000D01*
X50150000Y-83200000D02*
X51150000Y-83200000D01*
X50150000Y-70200000D02*
X50150000Y-69200000D01*
X83200000Y-31100000D02*
X83200000Y-32100000D01*
X82200000Y-45100000D02*
X83200000Y-45100000D01*
X83200000Y-31100000D02*
X82200000Y-31100000D01*
X83200000Y-44100000D02*
X83200000Y-45100000D01*
X69200000Y-45100000D02*
X69200000Y-44100000D01*
X70200000Y-31100000D02*
X69200000Y-31100000D01*
X69200000Y-45100000D02*
X70200000Y-45100000D01*
X69200000Y-32100000D02*
X69200000Y-31100000D01*
X83200000Y-50150000D02*
X83200000Y-51150000D01*
X82200000Y-64150000D02*
X83200000Y-64150000D01*
X83200000Y-50150000D02*
X82200000Y-50150000D01*
X83200000Y-63150000D02*
X83200000Y-64150000D01*
X69200000Y-64150000D02*
X69200000Y-63150000D01*
X70200000Y-50150000D02*
X69200000Y-50150000D01*
X69200000Y-64150000D02*
X70200000Y-64150000D01*
X69200000Y-51150000D02*
X69200000Y-50150000D01*
X83200000Y-69200000D02*
X83200000Y-70200000D01*
X82200000Y-83200000D02*
X83200000Y-83200000D01*
X83200000Y-69200000D02*
X82200000Y-69200000D01*
X83200000Y-82200000D02*
X83200000Y-83200000D01*
X69200000Y-83200000D02*
X69200000Y-82200000D01*
X70200000Y-69200000D02*
X69200000Y-69200000D01*
X69200000Y-83200000D02*
X70200000Y-83200000D01*
X69200000Y-70200000D02*
X69200000Y-69200000D01*
X102250000Y-28718750D02*
X102250000Y-29718750D01*
X101250000Y-42718750D02*
X102250000Y-42718750D01*
X102250000Y-28718750D02*
X101250000Y-28718750D01*
X102250000Y-41718750D02*
X102250000Y-42718750D01*
X88250000Y-42718750D02*
X88250000Y-41718750D01*
X89250000Y-28718750D02*
X88250000Y-28718750D01*
X88250000Y-42718750D02*
X89250000Y-42718750D01*
X88250000Y-29718750D02*
X88250000Y-28718750D01*
X102250000Y-47768750D02*
X102250000Y-48768750D01*
X101250000Y-61768750D02*
X102250000Y-61768750D01*
X102250000Y-47768750D02*
X101250000Y-47768750D01*
X102250000Y-60768750D02*
X102250000Y-61768750D01*
X88250000Y-61768750D02*
X88250000Y-60768750D01*
X89250000Y-47768750D02*
X88250000Y-47768750D01*
X88250000Y-61768750D02*
X89250000Y-61768750D01*
X88250000Y-48768750D02*
X88250000Y-47768750D01*
X102250000Y-66818750D02*
X102250000Y-67818750D01*
X101250000Y-80818750D02*
X102250000Y-80818750D01*
X102250000Y-66818750D02*
X101250000Y-66818750D01*
X102250000Y-79818750D02*
X102250000Y-80818750D01*
X88250000Y-80818750D02*
X88250000Y-79818750D01*
X89250000Y-66818750D02*
X88250000Y-66818750D01*
X88250000Y-80818750D02*
X89250000Y-80818750D01*
X88250000Y-67818750D02*
X88250000Y-66818750D01*
X121300000Y-26337500D02*
X121300000Y-27337500D01*
X120300000Y-40337500D02*
X121300000Y-40337500D01*
X121300000Y-26337500D02*
X120300000Y-26337500D01*
X121300000Y-39337500D02*
X121300000Y-40337500D01*
X107300000Y-40337500D02*
X107300000Y-39337500D01*
X108300000Y-26337500D02*
X107300000Y-26337500D01*
X107300000Y-40337500D02*
X108300000Y-40337500D01*
X107300000Y-27337500D02*
X107300000Y-26337500D01*
X121300000Y-45387500D02*
X121300000Y-46387500D01*
X120300000Y-59387500D02*
X121300000Y-59387500D01*
X121300000Y-45387500D02*
X120300000Y-45387500D01*
X121300000Y-58387500D02*
X121300000Y-59387500D01*
X107300000Y-59387500D02*
X107300000Y-58387500D01*
X108300000Y-45387500D02*
X107300000Y-45387500D01*
X107300000Y-59387500D02*
X108300000Y-59387500D01*
X107300000Y-46387500D02*
X107300000Y-45387500D01*
X121300000Y-64437500D02*
X121300000Y-65437500D01*
X120300000Y-78437500D02*
X121300000Y-78437500D01*
X121300000Y-64437500D02*
X120300000Y-64437500D01*
X121300000Y-77437500D02*
X121300000Y-78437500D01*
X107300000Y-78437500D02*
X107300000Y-77437500D01*
X108300000Y-64437500D02*
X107300000Y-64437500D01*
X107300000Y-78437500D02*
X108300000Y-78437500D01*
X107300000Y-65437500D02*
X107300000Y-64437500D01*
X130825000Y-88250000D02*
X130825000Y-89250000D01*
X129825000Y-102250000D02*
X130825000Y-102250000D01*
X130825000Y-88250000D02*
X129825000Y-88250000D01*
X130825000Y-101250000D02*
X130825000Y-102250000D01*
X116825000Y-102250000D02*
X116825000Y-101250000D01*
X117825000Y-88250000D02*
X116825000Y-88250000D01*
X116825000Y-102250000D02*
X117825000Y-102250000D01*
X116825000Y-89250000D02*
X116825000Y-88250000D01*
X140350000Y-28718750D02*
X140350000Y-29718750D01*
X139350000Y-42718750D02*
X140350000Y-42718750D01*
X140350000Y-28718750D02*
X139350000Y-28718750D01*
X140350000Y-41718750D02*
X140350000Y-42718750D01*
X126350000Y-42718750D02*
X126350000Y-41718750D01*
X127350000Y-28718750D02*
X126350000Y-28718750D01*
X126350000Y-42718750D02*
X127350000Y-42718750D01*
X126350000Y-29718750D02*
X126350000Y-28718750D01*
X140350000Y-47768750D02*
X140350000Y-48768750D01*
X139350000Y-61768750D02*
X140350000Y-61768750D01*
X140350000Y-47768750D02*
X139350000Y-47768750D01*
X140350000Y-60768750D02*
X140350000Y-61768750D01*
X126350000Y-61768750D02*
X126350000Y-60768750D01*
X127350000Y-47768750D02*
X126350000Y-47768750D01*
X126350000Y-61768750D02*
X127350000Y-61768750D01*
X126350000Y-48768750D02*
X126350000Y-47768750D01*
X140350000Y-66818750D02*
X140350000Y-67818750D01*
X139350000Y-80818750D02*
X140350000Y-80818750D01*
X140350000Y-66818750D02*
X139350000Y-66818750D01*
X140350000Y-79818750D02*
X140350000Y-80818750D01*
X126350000Y-80818750D02*
X126350000Y-79818750D01*
X127350000Y-66818750D02*
X126350000Y-66818750D01*
X126350000Y-80818750D02*
X127350000Y-80818750D01*
X126350000Y-67818750D02*
X126350000Y-66818750D01*
X155020089Y-91490878D02*
X154761270Y-92456803D01*
X150430697Y-104755020D02*
X151396622Y-105013839D01*
X155020089Y-91490878D02*
X154054163Y-91232058D01*
X151655442Y-104047913D02*
X151396622Y-105013839D01*
X137873661Y-101390372D02*
X138132480Y-100424447D01*
X142463053Y-88126230D02*
X141497128Y-87867411D01*
X137873661Y-101390372D02*
X138839587Y-101649192D01*
X141238308Y-88833337D02*
X141497128Y-87867411D01*
X159400000Y-31100000D02*
X159400000Y-32100000D01*
X158400000Y-45100000D02*
X159400000Y-45100000D01*
X159400000Y-31100000D02*
X158400000Y-31100000D01*
X159400000Y-44100000D02*
X159400000Y-45100000D01*
X145400000Y-45100000D02*
X145400000Y-44100000D01*
X146400000Y-31100000D02*
X145400000Y-31100000D01*
X145400000Y-45100000D02*
X146400000Y-45100000D01*
X145400000Y-32100000D02*
X145400000Y-31100000D01*
X159400000Y-50150000D02*
X159400000Y-51150000D01*
X158400000Y-64150000D02*
X159400000Y-64150000D01*
X159400000Y-50150000D02*
X158400000Y-50150000D01*
X159400000Y-63150000D02*
X159400000Y-64150000D01*
X145400000Y-64150000D02*
X145400000Y-63150000D01*
X146400000Y-50150000D02*
X145400000Y-50150000D01*
X145400000Y-64150000D02*
X146400000Y-64150000D01*
X145400000Y-51150000D02*
X145400000Y-50150000D01*
X159400000Y-69200000D02*
X159400000Y-70200000D01*
X158400000Y-83200000D02*
X159400000Y-83200000D01*
X159400000Y-69200000D02*
X158400000Y-69200000D01*
X159400000Y-82200000D02*
X159400000Y-83200000D01*
X145400000Y-83200000D02*
X145400000Y-82200000D01*
X146400000Y-69200000D02*
X145400000Y-69200000D01*
X145400000Y-83200000D02*
X146400000Y-83200000D01*
X145400000Y-70200000D02*
X145400000Y-69200000D01*
X178630928Y-97450322D02*
X178130928Y-98316348D01*
X170764902Y-109074678D02*
X171630928Y-109574678D01*
X178630928Y-97450322D02*
X177764902Y-96950322D01*
X172130928Y-108708652D02*
X171630928Y-109574678D01*
X159506572Y-102574678D02*
X160006572Y-101708652D01*
X167372598Y-90950322D02*
X166506572Y-90450322D01*
X159506572Y-102574678D02*
X160372598Y-103074678D01*
X166006572Y-91316348D02*
X166506572Y-90450322D01*
X167336286Y-78676600D02*
G75*
G03X167336286Y-78676600I-70711J0D01*
G01*
D13*
X169640364Y-78346300D02*
X168490786Y-78346300D01*
X168490786Y-80606900D02*
X169640364Y-80606900D01*
D12*
X171803600Y-79872621D02*
X171803600Y-80198179D01*
X172823600Y-79872621D02*
X172823600Y-80198179D01*
X174576200Y-79898021D02*
X174576200Y-80223579D01*
X173556200Y-79898021D02*
X173556200Y-80223579D01*
X165064221Y-77061600D02*
X165389779Y-77061600D01*
X165064221Y-78081600D02*
X165389779Y-78081600D01*
X165389779Y-74805000D02*
X165064221Y-74805000D01*
X165389779Y-73785000D02*
X165064221Y-73785000D01*
X171321000Y-70652421D02*
X171321000Y-70977979D01*
X172341000Y-70652421D02*
X172341000Y-70977979D01*
X165389779Y-75420125D02*
X165064221Y-75420125D01*
X165389779Y-76440125D02*
X165064221Y-76440125D01*
X169619200Y-70652421D02*
X169619200Y-70977979D01*
X170639200Y-70652421D02*
X170639200Y-70977979D01*
X173662121Y-43889200D02*
X173987679Y-43889200D01*
X173662121Y-44909200D02*
X173987679Y-44909200D01*
X169047379Y-41111900D02*
X168721821Y-41111900D01*
X169047379Y-40091900D02*
X168721821Y-40091900D01*
X166041800Y-43507879D02*
X166041800Y-43182321D01*
X165021800Y-43507879D02*
X165021800Y-43182321D01*
X166334221Y-53570600D02*
X166659779Y-53570600D01*
X166334221Y-52550600D02*
X166659779Y-52550600D01*
X163146200Y-50713421D02*
X163146200Y-51038979D01*
X162126200Y-50713421D02*
X162126200Y-51038979D01*
X177992821Y-51331400D02*
X178318379Y-51331400D01*
X177992821Y-52351400D02*
X178318379Y-52351400D01*
X168042000Y-64229064D02*
X168042000Y-63024936D01*
X166222000Y-64229064D02*
X166222000Y-63024936D01*
X165584600Y-64602579D02*
X165584600Y-64277021D01*
X164564600Y-64602579D02*
X164564600Y-64277021D01*
X171417064Y-57628200D02*
X170212936Y-57628200D01*
X171417064Y-55808200D02*
X170212936Y-55808200D01*
X65825000Y-42775000D02*
X65825000Y-40225000D01*
X67525000Y-42775000D02*
X67525000Y-40225000D01*
X65825000Y-42775000D02*
X67525000Y-42775000D01*
X65825000Y-61825000D02*
X65825000Y-59275000D01*
X67525000Y-61825000D02*
X67525000Y-59275000D01*
X65825000Y-61825000D02*
X67525000Y-61825000D01*
X65825000Y-80875000D02*
X67525000Y-80875000D01*
X67525000Y-80875000D02*
X67525000Y-78325000D01*
X65825000Y-80875000D02*
X65825000Y-78325000D01*
X84875000Y-42775000D02*
X84875000Y-40225000D01*
X86575000Y-42775000D02*
X86575000Y-40225000D01*
X84875000Y-42775000D02*
X86575000Y-42775000D01*
X84875000Y-61825000D02*
X86575000Y-61825000D01*
X86575000Y-61825000D02*
X86575000Y-59275000D01*
X84875000Y-61825000D02*
X84875000Y-59275000D01*
X84875000Y-80875000D02*
X86575000Y-80875000D01*
X86575000Y-80875000D02*
X86575000Y-78325000D01*
X84875000Y-80875000D02*
X84875000Y-78325000D01*
X103823400Y-40393750D02*
X103823400Y-37843750D01*
X105523400Y-40393750D02*
X105523400Y-37843750D01*
X103823400Y-40393750D02*
X105523400Y-40393750D01*
X103925000Y-59443750D02*
X103925000Y-56893750D01*
X105625000Y-59443750D02*
X105625000Y-56893750D01*
X103925000Y-59443750D02*
X105625000Y-59443750D01*
X103925000Y-78684250D02*
X105625000Y-78684250D01*
X105625000Y-78684250D02*
X105625000Y-76134250D01*
X103925000Y-78684250D02*
X103925000Y-76134250D01*
X122975000Y-38012500D02*
X122975000Y-35462500D01*
X124675000Y-38012500D02*
X124675000Y-35462500D01*
X122975000Y-38012500D02*
X124675000Y-38012500D01*
X122975000Y-57062500D02*
X124675000Y-57062500D01*
X124675000Y-57062500D02*
X124675000Y-54512500D01*
X122975000Y-57062500D02*
X122975000Y-54512500D01*
X122975000Y-76303000D02*
X124675000Y-76303000D01*
X124675000Y-76303000D02*
X124675000Y-73753000D01*
X122975000Y-76303000D02*
X122975000Y-73753000D01*
X132500000Y-99925000D02*
X134200000Y-99925000D01*
X134200000Y-99925000D02*
X134200000Y-97375000D01*
X132500000Y-99925000D02*
X132500000Y-97375000D01*
X142025000Y-40393750D02*
X142025000Y-37843750D01*
X143725000Y-40393750D02*
X143725000Y-37843750D01*
X142025000Y-40393750D02*
X143725000Y-40393750D01*
X142025000Y-59443750D02*
X143725000Y-59443750D01*
X143725000Y-59443750D02*
X143725000Y-56893750D01*
X142025000Y-59443750D02*
X142025000Y-56893750D01*
X142025000Y-78684250D02*
X143725000Y-78684250D01*
X143725000Y-78684250D02*
X143725000Y-76134250D01*
X142025000Y-78684250D02*
X142025000Y-76134250D01*
X153571984Y-103622643D02*
X154231973Y-101159532D01*
X155214058Y-104062635D02*
X155874047Y-101599524D01*
X153571984Y-103622643D02*
X155214058Y-104062635D01*
X161075000Y-42775000D02*
X161075000Y-40225000D01*
X162775000Y-42775000D02*
X162775000Y-40225000D01*
X161075000Y-42775000D02*
X162775000Y-42775000D01*
X160973400Y-62079000D02*
X162673400Y-62079000D01*
X162673400Y-62079000D02*
X162673400Y-59529000D01*
X160973400Y-62079000D02*
X160973400Y-59529000D01*
X161075000Y-81065500D02*
X162775000Y-81065500D01*
X162775000Y-81065500D02*
X162775000Y-78515500D01*
X161075000Y-81065500D02*
X161075000Y-78515500D01*
X174726378Y-108030288D02*
X176001378Y-105821923D01*
X176198622Y-108880288D02*
X177473622Y-106671923D01*
X174726378Y-108030288D02*
X176198622Y-108880288D01*
X170651000Y-32819600D02*
X170201000Y-32819600D01*
X170651000Y-30969600D02*
X170651000Y-32819600D01*
X162851000Y-28419600D02*
X162851000Y-28669600D01*
X170651000Y-28419600D02*
X170651000Y-28669600D01*
X162851000Y-30969600D02*
X162851000Y-32819600D01*
X162851000Y-32819600D02*
X163301000Y-32819600D01*
X168451000Y-33369600D02*
X168001000Y-33369600D01*
X168451000Y-33369600D02*
X168451000Y-32919600D01*
X187588200Y-42358000D02*
X184928200Y-42358000D01*
X187588200Y-50038000D02*
X187588200Y-42358000D01*
X184928200Y-50038000D02*
X184928200Y-42358000D01*
X187588200Y-50038000D02*
X184928200Y-50038000D01*
X187588200Y-51308000D02*
X187588200Y-52638000D01*
X187588200Y-52638000D02*
X186258200Y-52638000D01*
D14*
X167182400Y-72416600D02*
X164982400Y-72416600D01*
X164982400Y-66216600D02*
X167182400Y-66216600D01*
D12*
X173547500Y-41823421D02*
X173547500Y-42148979D01*
X172527500Y-41823421D02*
X172527500Y-42148979D01*
X164695600Y-50713421D02*
X164695600Y-51038979D01*
X163675600Y-50713421D02*
X163675600Y-51038979D01*
X166703448Y-49651900D02*
X167225952Y-49651900D01*
X166703448Y-51871900D02*
X167225952Y-51871900D01*
X170223548Y-60571400D02*
X170746052Y-60571400D01*
X170223548Y-58351400D02*
X170746052Y-58351400D01*
X177992821Y-52982400D02*
X178318379Y-52982400D01*
X177992821Y-54002400D02*
X178318379Y-54002400D01*
X169215654Y-81300225D02*
X168890096Y-81300225D01*
X169215654Y-82320225D02*
X168890096Y-82320225D01*
X182856600Y-49464179D02*
X182856600Y-49138621D01*
X181836600Y-49464179D02*
X181836600Y-49138621D01*
X180058600Y-49464179D02*
X180058600Y-49138621D01*
X181078600Y-49464179D02*
X181078600Y-49138621D01*
X166334221Y-54379400D02*
X166659779Y-54379400D01*
X166334221Y-55399400D02*
X166659779Y-55399400D01*
X166659779Y-59133200D02*
X166334221Y-59133200D01*
X166659779Y-58113200D02*
X166334221Y-58113200D01*
X181193221Y-51331400D02*
X181518779Y-51331400D01*
X181193221Y-52351400D02*
X181518779Y-52351400D01*
X170639200Y-67777579D02*
X170639200Y-67452021D01*
X169619200Y-67777579D02*
X169619200Y-67452021D01*
X172341000Y-67452021D02*
X172341000Y-67777579D01*
X171321000Y-67452021D02*
X171321000Y-67777579D01*
X173959425Y-66882229D02*
X173959425Y-66556671D01*
X174979425Y-66882229D02*
X174979425Y-66556671D01*
X173959425Y-63681829D02*
X173959425Y-63356271D01*
X174979425Y-63681829D02*
X174979425Y-63356271D01*
X174992125Y-60481429D02*
X174992125Y-60155871D01*
X173972125Y-60481429D02*
X173972125Y-60155871D01*
X187014000Y-70699000D02*
X187264000Y-70699000D01*
X187264000Y-70699000D02*
X187264000Y-76999000D01*
X187264000Y-76999000D02*
X187014000Y-76999000D01*
X182514000Y-70699000D02*
X185114000Y-70699000D01*
X180614000Y-76999000D02*
X180364000Y-76999000D01*
X180364000Y-76999000D02*
X180364000Y-70699000D01*
X180364000Y-70699000D02*
X180614000Y-70699000D01*
X185114000Y-76999000D02*
X182514000Y-76999000D01*
X169733825Y-46411200D02*
X169733825Y-45861200D01*
X169733825Y-45861200D02*
X170283825Y-45861200D01*
X175953825Y-51531200D02*
X175953825Y-52081200D01*
X175953825Y-52081200D02*
X175403825Y-52081200D01*
X175953825Y-46411200D02*
X175953825Y-45861200D01*
X175953825Y-45861200D02*
X175403825Y-45861200D01*
X169733825Y-51531200D02*
X169733825Y-52081200D01*
X173169126Y-64993649D02*
X173169126Y-61993649D01*
X168669126Y-62693649D02*
X168669126Y-65593649D01*
X166554400Y-41618900D02*
X166554400Y-44918900D01*
X166554400Y-44918900D02*
X170554400Y-44918900D01*
X188067800Y-67758000D02*
X179437800Y-67758000D01*
X188067800Y-67639905D02*
X179437800Y-67639905D01*
X188067800Y-67521810D02*
X179437800Y-67521810D01*
X188067800Y-67403715D02*
X179437800Y-67403715D01*
X188067800Y-67285620D02*
X179437800Y-67285620D01*
X188067800Y-67167525D02*
X179437800Y-67167525D01*
X188067800Y-67049430D02*
X179437800Y-67049430D01*
X188067800Y-66931335D02*
X179437800Y-66931335D01*
X188067800Y-66813240D02*
X179437800Y-66813240D01*
X188067800Y-66695145D02*
X179437800Y-66695145D01*
X188067800Y-66577050D02*
X179437800Y-66577050D01*
X188067800Y-66458955D02*
X179437800Y-66458955D01*
X188067800Y-66340860D02*
X179437800Y-66340860D01*
X188067800Y-66222765D02*
X179437800Y-66222765D01*
X188067800Y-66104670D02*
X179437800Y-66104670D01*
X188067800Y-65986575D02*
X179437800Y-65986575D01*
X188067800Y-65868480D02*
X179437800Y-65868480D01*
X188067800Y-65750385D02*
X179437800Y-65750385D01*
X188067800Y-65632290D02*
X179437800Y-65632290D01*
X188067800Y-65514195D02*
X179437800Y-65514195D01*
X188067800Y-65396100D02*
X179437800Y-65396100D01*
X179437800Y-66908000D02*
X179087800Y-66908000D01*
X179437800Y-66188000D02*
X179087800Y-66188000D01*
X179437800Y-64368000D02*
X179027800Y-64368000D01*
X179437800Y-63648000D02*
X179027800Y-63648000D01*
X179437800Y-61828000D02*
X179027800Y-61828000D01*
X179437800Y-61108000D02*
X179027800Y-61108000D01*
X179437800Y-59288000D02*
X179027800Y-59288000D01*
X179437800Y-58568000D02*
X179027800Y-58568000D01*
X179437800Y-56748000D02*
X179027800Y-56748000D01*
X179437800Y-56028000D02*
X179027800Y-56028000D01*
X188067800Y-65278000D02*
X179437800Y-65278000D01*
X188067800Y-62738000D02*
X179437800Y-62738000D01*
X188067800Y-60198000D02*
X179437800Y-60198000D01*
X188067800Y-57658000D02*
X179437800Y-57658000D01*
X188067800Y-67878000D02*
X179437800Y-67878000D01*
X179437800Y-67878000D02*
X179437800Y-55058000D01*
X188067800Y-55058000D02*
X179437800Y-55058000D01*
X188067800Y-67878000D02*
X188067800Y-55058000D01*
X176867800Y-67878000D02*
X176867800Y-66548000D01*
X177977800Y-67878000D02*
X176867800Y-67878000D01*
X181421000Y-58928000D02*
G75*
G03X181421000Y-58928000I-700000J0D01*
G01*
D10*
X172451780Y-78333504D02*
X173261304Y-78333504D01*
X173356542Y-78285885D01*
X173404161Y-78238266D01*
X173451780Y-78143028D01*
X173451780Y-77952552D01*
X173404161Y-77857314D01*
X173356542Y-77809695D01*
X173261304Y-77762076D01*
X172451780Y-77762076D01*
X172547019Y-77333504D02*
X172499400Y-77285885D01*
X172451780Y-77190647D01*
X172451780Y-76952552D01*
X172499400Y-76857314D01*
X172547019Y-76809695D01*
X172642257Y-76762076D01*
X172737495Y-76762076D01*
X172880352Y-76809695D01*
X173451780Y-77381123D01*
X173451780Y-76762076D01*
X55816666Y-30249761D02*
X55959523Y-30297380D01*
X56197619Y-30297380D01*
X56292857Y-30249761D01*
X56340476Y-30202142D01*
X56388095Y-30106904D01*
X56388095Y-30011666D01*
X56340476Y-29916428D01*
X56292857Y-29868809D01*
X56197619Y-29821190D01*
X56007142Y-29773571D01*
X55911904Y-29725952D01*
X55864285Y-29678333D01*
X55816666Y-29583095D01*
X55816666Y-29487857D01*
X55864285Y-29392619D01*
X55911904Y-29345000D01*
X56007142Y-29297380D01*
X56245238Y-29297380D01*
X56388095Y-29345000D01*
X56721428Y-29297380D02*
X56959523Y-30297380D01*
X57150000Y-29583095D01*
X57340476Y-30297380D01*
X57578571Y-29297380D01*
X57911904Y-29392619D02*
X57959523Y-29345000D01*
X58054761Y-29297380D01*
X58292857Y-29297380D01*
X58388095Y-29345000D01*
X58435714Y-29392619D01*
X58483333Y-29487857D01*
X58483333Y-29583095D01*
X58435714Y-29725952D01*
X57864285Y-30297380D01*
X58483333Y-30297380D01*
X55816666Y-49299761D02*
X55959523Y-49347380D01*
X56197619Y-49347380D01*
X56292857Y-49299761D01*
X56340476Y-49252142D01*
X56388095Y-49156904D01*
X56388095Y-49061666D01*
X56340476Y-48966428D01*
X56292857Y-48918809D01*
X56197619Y-48871190D01*
X56007142Y-48823571D01*
X55911904Y-48775952D01*
X55864285Y-48728333D01*
X55816666Y-48633095D01*
X55816666Y-48537857D01*
X55864285Y-48442619D01*
X55911904Y-48395000D01*
X56007142Y-48347380D01*
X56245238Y-48347380D01*
X56388095Y-48395000D01*
X56721428Y-48347380D02*
X56959523Y-49347380D01*
X57150000Y-48633095D01*
X57340476Y-49347380D01*
X57578571Y-48347380D01*
X57864285Y-48347380D02*
X58483333Y-48347380D01*
X58150000Y-48728333D01*
X58292857Y-48728333D01*
X58388095Y-48775952D01*
X58435714Y-48823571D01*
X58483333Y-48918809D01*
X58483333Y-49156904D01*
X58435714Y-49252142D01*
X58388095Y-49299761D01*
X58292857Y-49347380D01*
X58007142Y-49347380D01*
X57911904Y-49299761D01*
X57864285Y-49252142D01*
X55816666Y-68349761D02*
X55959523Y-68397380D01*
X56197619Y-68397380D01*
X56292857Y-68349761D01*
X56340476Y-68302142D01*
X56388095Y-68206904D01*
X56388095Y-68111666D01*
X56340476Y-68016428D01*
X56292857Y-67968809D01*
X56197619Y-67921190D01*
X56007142Y-67873571D01*
X55911904Y-67825952D01*
X55864285Y-67778333D01*
X55816666Y-67683095D01*
X55816666Y-67587857D01*
X55864285Y-67492619D01*
X55911904Y-67445000D01*
X56007142Y-67397380D01*
X56245238Y-67397380D01*
X56388095Y-67445000D01*
X56721428Y-67397380D02*
X56959523Y-68397380D01*
X57150000Y-67683095D01*
X57340476Y-68397380D01*
X57578571Y-67397380D01*
X58388095Y-67730714D02*
X58388095Y-68397380D01*
X58150000Y-67349761D02*
X57911904Y-68064047D01*
X58530952Y-68064047D01*
X74866666Y-30249761D02*
X75009523Y-30297380D01*
X75247619Y-30297380D01*
X75342857Y-30249761D01*
X75390476Y-30202142D01*
X75438095Y-30106904D01*
X75438095Y-30011666D01*
X75390476Y-29916428D01*
X75342857Y-29868809D01*
X75247619Y-29821190D01*
X75057142Y-29773571D01*
X74961904Y-29725952D01*
X74914285Y-29678333D01*
X74866666Y-29583095D01*
X74866666Y-29487857D01*
X74914285Y-29392619D01*
X74961904Y-29345000D01*
X75057142Y-29297380D01*
X75295238Y-29297380D01*
X75438095Y-29345000D01*
X75771428Y-29297380D02*
X76009523Y-30297380D01*
X76200000Y-29583095D01*
X76390476Y-30297380D01*
X76628571Y-29297380D01*
X77485714Y-29297380D02*
X77009523Y-29297380D01*
X76961904Y-29773571D01*
X77009523Y-29725952D01*
X77104761Y-29678333D01*
X77342857Y-29678333D01*
X77438095Y-29725952D01*
X77485714Y-29773571D01*
X77533333Y-29868809D01*
X77533333Y-30106904D01*
X77485714Y-30202142D01*
X77438095Y-30249761D01*
X77342857Y-30297380D01*
X77104761Y-30297380D01*
X77009523Y-30249761D01*
X76961904Y-30202142D01*
X74866666Y-49299761D02*
X75009523Y-49347380D01*
X75247619Y-49347380D01*
X75342857Y-49299761D01*
X75390476Y-49252142D01*
X75438095Y-49156904D01*
X75438095Y-49061666D01*
X75390476Y-48966428D01*
X75342857Y-48918809D01*
X75247619Y-48871190D01*
X75057142Y-48823571D01*
X74961904Y-48775952D01*
X74914285Y-48728333D01*
X74866666Y-48633095D01*
X74866666Y-48537857D01*
X74914285Y-48442619D01*
X74961904Y-48395000D01*
X75057142Y-48347380D01*
X75295238Y-48347380D01*
X75438095Y-48395000D01*
X75771428Y-48347380D02*
X76009523Y-49347380D01*
X76200000Y-48633095D01*
X76390476Y-49347380D01*
X76628571Y-48347380D01*
X77438095Y-48347380D02*
X77247619Y-48347380D01*
X77152380Y-48395000D01*
X77104761Y-48442619D01*
X77009523Y-48585476D01*
X76961904Y-48775952D01*
X76961904Y-49156904D01*
X77009523Y-49252142D01*
X77057142Y-49299761D01*
X77152380Y-49347380D01*
X77342857Y-49347380D01*
X77438095Y-49299761D01*
X77485714Y-49252142D01*
X77533333Y-49156904D01*
X77533333Y-48918809D01*
X77485714Y-48823571D01*
X77438095Y-48775952D01*
X77342857Y-48728333D01*
X77152380Y-48728333D01*
X77057142Y-48775952D01*
X77009523Y-48823571D01*
X76961904Y-48918809D01*
X74866666Y-68349761D02*
X75009523Y-68397380D01*
X75247619Y-68397380D01*
X75342857Y-68349761D01*
X75390476Y-68302142D01*
X75438095Y-68206904D01*
X75438095Y-68111666D01*
X75390476Y-68016428D01*
X75342857Y-67968809D01*
X75247619Y-67921190D01*
X75057142Y-67873571D01*
X74961904Y-67825952D01*
X74914285Y-67778333D01*
X74866666Y-67683095D01*
X74866666Y-67587857D01*
X74914285Y-67492619D01*
X74961904Y-67445000D01*
X75057142Y-67397380D01*
X75295238Y-67397380D01*
X75438095Y-67445000D01*
X75771428Y-67397380D02*
X76009523Y-68397380D01*
X76200000Y-67683095D01*
X76390476Y-68397380D01*
X76628571Y-67397380D01*
X76914285Y-67397380D02*
X77580952Y-67397380D01*
X77152380Y-68397380D01*
X93916666Y-27868511D02*
X94059523Y-27916130D01*
X94297619Y-27916130D01*
X94392857Y-27868511D01*
X94440476Y-27820892D01*
X94488095Y-27725654D01*
X94488095Y-27630416D01*
X94440476Y-27535178D01*
X94392857Y-27487559D01*
X94297619Y-27439940D01*
X94107142Y-27392321D01*
X94011904Y-27344702D01*
X93964285Y-27297083D01*
X93916666Y-27201845D01*
X93916666Y-27106607D01*
X93964285Y-27011369D01*
X94011904Y-26963750D01*
X94107142Y-26916130D01*
X94345238Y-26916130D01*
X94488095Y-26963750D01*
X94821428Y-26916130D02*
X95059523Y-27916130D01*
X95250000Y-27201845D01*
X95440476Y-27916130D01*
X95678571Y-26916130D01*
X96202380Y-27344702D02*
X96107142Y-27297083D01*
X96059523Y-27249464D01*
X96011904Y-27154226D01*
X96011904Y-27106607D01*
X96059523Y-27011369D01*
X96107142Y-26963750D01*
X96202380Y-26916130D01*
X96392857Y-26916130D01*
X96488095Y-26963750D01*
X96535714Y-27011369D01*
X96583333Y-27106607D01*
X96583333Y-27154226D01*
X96535714Y-27249464D01*
X96488095Y-27297083D01*
X96392857Y-27344702D01*
X96202380Y-27344702D01*
X96107142Y-27392321D01*
X96059523Y-27439940D01*
X96011904Y-27535178D01*
X96011904Y-27725654D01*
X96059523Y-27820892D01*
X96107142Y-27868511D01*
X96202380Y-27916130D01*
X96392857Y-27916130D01*
X96488095Y-27868511D01*
X96535714Y-27820892D01*
X96583333Y-27725654D01*
X96583333Y-27535178D01*
X96535714Y-27439940D01*
X96488095Y-27392321D01*
X96392857Y-27344702D01*
X93916666Y-46918511D02*
X94059523Y-46966130D01*
X94297619Y-46966130D01*
X94392857Y-46918511D01*
X94440476Y-46870892D01*
X94488095Y-46775654D01*
X94488095Y-46680416D01*
X94440476Y-46585178D01*
X94392857Y-46537559D01*
X94297619Y-46489940D01*
X94107142Y-46442321D01*
X94011904Y-46394702D01*
X93964285Y-46347083D01*
X93916666Y-46251845D01*
X93916666Y-46156607D01*
X93964285Y-46061369D01*
X94011904Y-46013750D01*
X94107142Y-45966130D01*
X94345238Y-45966130D01*
X94488095Y-46013750D01*
X94821428Y-45966130D02*
X95059523Y-46966130D01*
X95250000Y-46251845D01*
X95440476Y-46966130D01*
X95678571Y-45966130D01*
X96107142Y-46966130D02*
X96297619Y-46966130D01*
X96392857Y-46918511D01*
X96440476Y-46870892D01*
X96535714Y-46728035D01*
X96583333Y-46537559D01*
X96583333Y-46156607D01*
X96535714Y-46061369D01*
X96488095Y-46013750D01*
X96392857Y-45966130D01*
X96202380Y-45966130D01*
X96107142Y-46013750D01*
X96059523Y-46061369D01*
X96011904Y-46156607D01*
X96011904Y-46394702D01*
X96059523Y-46489940D01*
X96107142Y-46537559D01*
X96202380Y-46585178D01*
X96392857Y-46585178D01*
X96488095Y-46537559D01*
X96535714Y-46489940D01*
X96583333Y-46394702D01*
X93440476Y-65968511D02*
X93583333Y-66016130D01*
X93821428Y-66016130D01*
X93916666Y-65968511D01*
X93964285Y-65920892D01*
X94011904Y-65825654D01*
X94011904Y-65730416D01*
X93964285Y-65635178D01*
X93916666Y-65587559D01*
X93821428Y-65539940D01*
X93630952Y-65492321D01*
X93535714Y-65444702D01*
X93488095Y-65397083D01*
X93440476Y-65301845D01*
X93440476Y-65206607D01*
X93488095Y-65111369D01*
X93535714Y-65063750D01*
X93630952Y-65016130D01*
X93869047Y-65016130D01*
X94011904Y-65063750D01*
X94345238Y-65016130D02*
X94583333Y-66016130D01*
X94773809Y-65301845D01*
X94964285Y-66016130D01*
X95202380Y-65016130D01*
X96107142Y-66016130D02*
X95535714Y-66016130D01*
X95821428Y-66016130D02*
X95821428Y-65016130D01*
X95726190Y-65158988D01*
X95630952Y-65254226D01*
X95535714Y-65301845D01*
X96726190Y-65016130D02*
X96821428Y-65016130D01*
X96916666Y-65063750D01*
X96964285Y-65111369D01*
X97011904Y-65206607D01*
X97059523Y-65397083D01*
X97059523Y-65635178D01*
X97011904Y-65825654D01*
X96964285Y-65920892D01*
X96916666Y-65968511D01*
X96821428Y-66016130D01*
X96726190Y-66016130D01*
X96630952Y-65968511D01*
X96583333Y-65920892D01*
X96535714Y-65825654D01*
X96488095Y-65635178D01*
X96488095Y-65397083D01*
X96535714Y-65206607D01*
X96583333Y-65111369D01*
X96630952Y-65063750D01*
X96726190Y-65016130D01*
X112490476Y-25487261D02*
X112633333Y-25534880D01*
X112871428Y-25534880D01*
X112966666Y-25487261D01*
X113014285Y-25439642D01*
X113061904Y-25344404D01*
X113061904Y-25249166D01*
X113014285Y-25153928D01*
X112966666Y-25106309D01*
X112871428Y-25058690D01*
X112680952Y-25011071D01*
X112585714Y-24963452D01*
X112538095Y-24915833D01*
X112490476Y-24820595D01*
X112490476Y-24725357D01*
X112538095Y-24630119D01*
X112585714Y-24582500D01*
X112680952Y-24534880D01*
X112919047Y-24534880D01*
X113061904Y-24582500D01*
X113395238Y-24534880D02*
X113633333Y-25534880D01*
X113823809Y-24820595D01*
X114014285Y-25534880D01*
X114252380Y-24534880D01*
X115157142Y-25534880D02*
X114585714Y-25534880D01*
X114871428Y-25534880D02*
X114871428Y-24534880D01*
X114776190Y-24677738D01*
X114680952Y-24772976D01*
X114585714Y-24820595D01*
X116109523Y-25534880D02*
X115538095Y-25534880D01*
X115823809Y-25534880D02*
X115823809Y-24534880D01*
X115728571Y-24677738D01*
X115633333Y-24772976D01*
X115538095Y-24820595D01*
X112490476Y-44537261D02*
X112633333Y-44584880D01*
X112871428Y-44584880D01*
X112966666Y-44537261D01*
X113014285Y-44489642D01*
X113061904Y-44394404D01*
X113061904Y-44299166D01*
X113014285Y-44203928D01*
X112966666Y-44156309D01*
X112871428Y-44108690D01*
X112680952Y-44061071D01*
X112585714Y-44013452D01*
X112538095Y-43965833D01*
X112490476Y-43870595D01*
X112490476Y-43775357D01*
X112538095Y-43680119D01*
X112585714Y-43632500D01*
X112680952Y-43584880D01*
X112919047Y-43584880D01*
X113061904Y-43632500D01*
X113395238Y-43584880D02*
X113633333Y-44584880D01*
X113823809Y-43870595D01*
X114014285Y-44584880D01*
X114252380Y-43584880D01*
X115157142Y-44584880D02*
X114585714Y-44584880D01*
X114871428Y-44584880D02*
X114871428Y-43584880D01*
X114776190Y-43727738D01*
X114680952Y-43822976D01*
X114585714Y-43870595D01*
X115538095Y-43680119D02*
X115585714Y-43632500D01*
X115680952Y-43584880D01*
X115919047Y-43584880D01*
X116014285Y-43632500D01*
X116061904Y-43680119D01*
X116109523Y-43775357D01*
X116109523Y-43870595D01*
X116061904Y-44013452D01*
X115490476Y-44584880D01*
X116109523Y-44584880D01*
X112490476Y-63587261D02*
X112633333Y-63634880D01*
X112871428Y-63634880D01*
X112966666Y-63587261D01*
X113014285Y-63539642D01*
X113061904Y-63444404D01*
X113061904Y-63349166D01*
X113014285Y-63253928D01*
X112966666Y-63206309D01*
X112871428Y-63158690D01*
X112680952Y-63111071D01*
X112585714Y-63063452D01*
X112538095Y-63015833D01*
X112490476Y-62920595D01*
X112490476Y-62825357D01*
X112538095Y-62730119D01*
X112585714Y-62682500D01*
X112680952Y-62634880D01*
X112919047Y-62634880D01*
X113061904Y-62682500D01*
X113395238Y-62634880D02*
X113633333Y-63634880D01*
X113823809Y-62920595D01*
X114014285Y-63634880D01*
X114252380Y-62634880D01*
X115157142Y-63634880D02*
X114585714Y-63634880D01*
X114871428Y-63634880D02*
X114871428Y-62634880D01*
X114776190Y-62777738D01*
X114680952Y-62872976D01*
X114585714Y-62920595D01*
X115490476Y-62634880D02*
X116109523Y-62634880D01*
X115776190Y-63015833D01*
X115919047Y-63015833D01*
X116014285Y-63063452D01*
X116061904Y-63111071D01*
X116109523Y-63206309D01*
X116109523Y-63444404D01*
X116061904Y-63539642D01*
X116014285Y-63587261D01*
X115919047Y-63634880D01*
X115633333Y-63634880D01*
X115538095Y-63587261D01*
X115490476Y-63539642D01*
X122015476Y-87399761D02*
X122158333Y-87447380D01*
X122396428Y-87447380D01*
X122491666Y-87399761D01*
X122539285Y-87352142D01*
X122586904Y-87256904D01*
X122586904Y-87161666D01*
X122539285Y-87066428D01*
X122491666Y-87018809D01*
X122396428Y-86971190D01*
X122205952Y-86923571D01*
X122110714Y-86875952D01*
X122063095Y-86828333D01*
X122015476Y-86733095D01*
X122015476Y-86637857D01*
X122063095Y-86542619D01*
X122110714Y-86495000D01*
X122205952Y-86447380D01*
X122444047Y-86447380D01*
X122586904Y-86495000D01*
X122920238Y-86447380D02*
X123158333Y-87447380D01*
X123348809Y-86733095D01*
X123539285Y-87447380D01*
X123777380Y-86447380D01*
X124682142Y-87447380D02*
X124110714Y-87447380D01*
X124396428Y-87447380D02*
X124396428Y-86447380D01*
X124301190Y-86590238D01*
X124205952Y-86685476D01*
X124110714Y-86733095D01*
X125539285Y-86780714D02*
X125539285Y-87447380D01*
X125301190Y-86399761D02*
X125063095Y-87114047D01*
X125682142Y-87114047D01*
X131540476Y-27868511D02*
X131683333Y-27916130D01*
X131921428Y-27916130D01*
X132016666Y-27868511D01*
X132064285Y-27820892D01*
X132111904Y-27725654D01*
X132111904Y-27630416D01*
X132064285Y-27535178D01*
X132016666Y-27487559D01*
X131921428Y-27439940D01*
X131730952Y-27392321D01*
X131635714Y-27344702D01*
X131588095Y-27297083D01*
X131540476Y-27201845D01*
X131540476Y-27106607D01*
X131588095Y-27011369D01*
X131635714Y-26963750D01*
X131730952Y-26916130D01*
X131969047Y-26916130D01*
X132111904Y-26963750D01*
X132445238Y-26916130D02*
X132683333Y-27916130D01*
X132873809Y-27201845D01*
X133064285Y-27916130D01*
X133302380Y-26916130D01*
X134207142Y-27916130D02*
X133635714Y-27916130D01*
X133921428Y-27916130D02*
X133921428Y-26916130D01*
X133826190Y-27058988D01*
X133730952Y-27154226D01*
X133635714Y-27201845D01*
X135111904Y-26916130D02*
X134635714Y-26916130D01*
X134588095Y-27392321D01*
X134635714Y-27344702D01*
X134730952Y-27297083D01*
X134969047Y-27297083D01*
X135064285Y-27344702D01*
X135111904Y-27392321D01*
X135159523Y-27487559D01*
X135159523Y-27725654D01*
X135111904Y-27820892D01*
X135064285Y-27868511D01*
X134969047Y-27916130D01*
X134730952Y-27916130D01*
X134635714Y-27868511D01*
X134588095Y-27820892D01*
X131540476Y-46918511D02*
X131683333Y-46966130D01*
X131921428Y-46966130D01*
X132016666Y-46918511D01*
X132064285Y-46870892D01*
X132111904Y-46775654D01*
X132111904Y-46680416D01*
X132064285Y-46585178D01*
X132016666Y-46537559D01*
X131921428Y-46489940D01*
X131730952Y-46442321D01*
X131635714Y-46394702D01*
X131588095Y-46347083D01*
X131540476Y-46251845D01*
X131540476Y-46156607D01*
X131588095Y-46061369D01*
X131635714Y-46013750D01*
X131730952Y-45966130D01*
X131969047Y-45966130D01*
X132111904Y-46013750D01*
X132445238Y-45966130D02*
X132683333Y-46966130D01*
X132873809Y-46251845D01*
X133064285Y-46966130D01*
X133302380Y-45966130D01*
X134207142Y-46966130D02*
X133635714Y-46966130D01*
X133921428Y-46966130D02*
X133921428Y-45966130D01*
X133826190Y-46108988D01*
X133730952Y-46204226D01*
X133635714Y-46251845D01*
X135064285Y-45966130D02*
X134873809Y-45966130D01*
X134778571Y-46013750D01*
X134730952Y-46061369D01*
X134635714Y-46204226D01*
X134588095Y-46394702D01*
X134588095Y-46775654D01*
X134635714Y-46870892D01*
X134683333Y-46918511D01*
X134778571Y-46966130D01*
X134969047Y-46966130D01*
X135064285Y-46918511D01*
X135111904Y-46870892D01*
X135159523Y-46775654D01*
X135159523Y-46537559D01*
X135111904Y-46442321D01*
X135064285Y-46394702D01*
X134969047Y-46347083D01*
X134778571Y-46347083D01*
X134683333Y-46394702D01*
X134635714Y-46442321D01*
X134588095Y-46537559D01*
X131540476Y-65968511D02*
X131683333Y-66016130D01*
X131921428Y-66016130D01*
X132016666Y-65968511D01*
X132064285Y-65920892D01*
X132111904Y-65825654D01*
X132111904Y-65730416D01*
X132064285Y-65635178D01*
X132016666Y-65587559D01*
X131921428Y-65539940D01*
X131730952Y-65492321D01*
X131635714Y-65444702D01*
X131588095Y-65397083D01*
X131540476Y-65301845D01*
X131540476Y-65206607D01*
X131588095Y-65111369D01*
X131635714Y-65063750D01*
X131730952Y-65016130D01*
X131969047Y-65016130D01*
X132111904Y-65063750D01*
X132445238Y-65016130D02*
X132683333Y-66016130D01*
X132873809Y-65301845D01*
X133064285Y-66016130D01*
X133302380Y-65016130D01*
X134207142Y-66016130D02*
X133635714Y-66016130D01*
X133921428Y-66016130D02*
X133921428Y-65016130D01*
X133826190Y-65158988D01*
X133730952Y-65254226D01*
X133635714Y-65301845D01*
X134540476Y-65016130D02*
X135207142Y-65016130D01*
X134778571Y-66016130D01*
X146730800Y-88389537D02*
X146856464Y-88472508D01*
X147086447Y-88534131D01*
X147190764Y-88512784D01*
X147249085Y-88479113D01*
X147319731Y-88399444D01*
X147344381Y-88307452D01*
X147323034Y-88203134D01*
X147289362Y-88144813D01*
X147209694Y-88074167D01*
X147038033Y-87978871D01*
X146958364Y-87908226D01*
X146924693Y-87849904D01*
X146903346Y-87745587D01*
X146927995Y-87653594D01*
X146998641Y-87573926D01*
X147056962Y-87540254D01*
X147161280Y-87518907D01*
X147391262Y-87580530D01*
X147516927Y-87663501D01*
X147851227Y-87703778D02*
X147822390Y-88731327D01*
X148191247Y-88090679D01*
X148190362Y-88829925D01*
X148679163Y-87925622D01*
X149294277Y-89125718D02*
X148742320Y-88977821D01*
X149018298Y-89051770D02*
X149277117Y-88085844D01*
X149148150Y-88199184D01*
X149031508Y-88266527D01*
X148927190Y-88287874D01*
X149994131Y-88721657D02*
X149914463Y-88651011D01*
X149880791Y-88592690D01*
X149859444Y-88488372D01*
X149871769Y-88442376D01*
X149942415Y-88362707D01*
X150000736Y-88329036D01*
X150105054Y-88307689D01*
X150289040Y-88356987D01*
X150368708Y-88427633D01*
X150402380Y-88485955D01*
X150423727Y-88590272D01*
X150411402Y-88636269D01*
X150340756Y-88715937D01*
X150282435Y-88749609D01*
X150178117Y-88770956D01*
X149994131Y-88721657D01*
X149889814Y-88743004D01*
X149831492Y-88776676D01*
X149760847Y-88856344D01*
X149711548Y-89040330D01*
X149732895Y-89144647D01*
X149766567Y-89202969D01*
X149846235Y-89273614D01*
X150030221Y-89322913D01*
X150134538Y-89301566D01*
X150192859Y-89267895D01*
X150263505Y-89188226D01*
X150312804Y-89004240D01*
X150291457Y-88899923D01*
X150257785Y-88841602D01*
X150178117Y-88770956D01*
X150590476Y-30249761D02*
X150733333Y-30297380D01*
X150971428Y-30297380D01*
X151066666Y-30249761D01*
X151114285Y-30202142D01*
X151161904Y-30106904D01*
X151161904Y-30011666D01*
X151114285Y-29916428D01*
X151066666Y-29868809D01*
X150971428Y-29821190D01*
X150780952Y-29773571D01*
X150685714Y-29725952D01*
X150638095Y-29678333D01*
X150590476Y-29583095D01*
X150590476Y-29487857D01*
X150638095Y-29392619D01*
X150685714Y-29345000D01*
X150780952Y-29297380D01*
X151019047Y-29297380D01*
X151161904Y-29345000D01*
X151495238Y-29297380D02*
X151733333Y-30297380D01*
X151923809Y-29583095D01*
X152114285Y-30297380D01*
X152352380Y-29297380D01*
X153257142Y-30297380D02*
X152685714Y-30297380D01*
X152971428Y-30297380D02*
X152971428Y-29297380D01*
X152876190Y-29440238D01*
X152780952Y-29535476D01*
X152685714Y-29583095D01*
X153733333Y-30297380D02*
X153923809Y-30297380D01*
X154019047Y-30249761D01*
X154066666Y-30202142D01*
X154161904Y-30059285D01*
X154209523Y-29868809D01*
X154209523Y-29487857D01*
X154161904Y-29392619D01*
X154114285Y-29345000D01*
X154019047Y-29297380D01*
X153828571Y-29297380D01*
X153733333Y-29345000D01*
X153685714Y-29392619D01*
X153638095Y-29487857D01*
X153638095Y-29725952D01*
X153685714Y-29821190D01*
X153733333Y-29868809D01*
X153828571Y-29916428D01*
X154019047Y-29916428D01*
X154114285Y-29868809D01*
X154161904Y-29821190D01*
X154209523Y-29725952D01*
X150590476Y-49299761D02*
X150733333Y-49347380D01*
X150971428Y-49347380D01*
X151066666Y-49299761D01*
X151114285Y-49252142D01*
X151161904Y-49156904D01*
X151161904Y-49061666D01*
X151114285Y-48966428D01*
X151066666Y-48918809D01*
X150971428Y-48871190D01*
X150780952Y-48823571D01*
X150685714Y-48775952D01*
X150638095Y-48728333D01*
X150590476Y-48633095D01*
X150590476Y-48537857D01*
X150638095Y-48442619D01*
X150685714Y-48395000D01*
X150780952Y-48347380D01*
X151019047Y-48347380D01*
X151161904Y-48395000D01*
X151495238Y-48347380D02*
X151733333Y-49347380D01*
X151923809Y-48633095D01*
X152114285Y-49347380D01*
X152352380Y-48347380D01*
X152685714Y-48442619D02*
X152733333Y-48395000D01*
X152828571Y-48347380D01*
X153066666Y-48347380D01*
X153161904Y-48395000D01*
X153209523Y-48442619D01*
X153257142Y-48537857D01*
X153257142Y-48633095D01*
X153209523Y-48775952D01*
X152638095Y-49347380D01*
X153257142Y-49347380D01*
X153876190Y-48347380D02*
X153971428Y-48347380D01*
X154066666Y-48395000D01*
X154114285Y-48442619D01*
X154161904Y-48537857D01*
X154209523Y-48728333D01*
X154209523Y-48966428D01*
X154161904Y-49156904D01*
X154114285Y-49252142D01*
X154066666Y-49299761D01*
X153971428Y-49347380D01*
X153876190Y-49347380D01*
X153780952Y-49299761D01*
X153733333Y-49252142D01*
X153685714Y-49156904D01*
X153638095Y-48966428D01*
X153638095Y-48728333D01*
X153685714Y-48537857D01*
X153733333Y-48442619D01*
X153780952Y-48395000D01*
X153876190Y-48347380D01*
X150590476Y-68349761D02*
X150733333Y-68397380D01*
X150971428Y-68397380D01*
X151066666Y-68349761D01*
X151114285Y-68302142D01*
X151161904Y-68206904D01*
X151161904Y-68111666D01*
X151114285Y-68016428D01*
X151066666Y-67968809D01*
X150971428Y-67921190D01*
X150780952Y-67873571D01*
X150685714Y-67825952D01*
X150638095Y-67778333D01*
X150590476Y-67683095D01*
X150590476Y-67587857D01*
X150638095Y-67492619D01*
X150685714Y-67445000D01*
X150780952Y-67397380D01*
X151019047Y-67397380D01*
X151161904Y-67445000D01*
X151495238Y-67397380D02*
X151733333Y-68397380D01*
X151923809Y-67683095D01*
X152114285Y-68397380D01*
X152352380Y-67397380D01*
X152685714Y-67492619D02*
X152733333Y-67445000D01*
X152828571Y-67397380D01*
X153066666Y-67397380D01*
X153161904Y-67445000D01*
X153209523Y-67492619D01*
X153257142Y-67587857D01*
X153257142Y-67683095D01*
X153209523Y-67825952D01*
X152638095Y-68397380D01*
X153257142Y-68397380D01*
X154209523Y-68397380D02*
X153638095Y-68397380D01*
X153923809Y-68397380D02*
X153923809Y-67397380D01*
X153828571Y-67540238D01*
X153733333Y-67635476D01*
X153638095Y-67683095D01*
X171426775Y-92309232D02*
X171526683Y-92421900D01*
X171732880Y-92540947D01*
X171839168Y-92547327D01*
X171904217Y-92529897D01*
X171993075Y-92471228D01*
X172040694Y-92388749D01*
X172047074Y-92282461D01*
X172029644Y-92217412D01*
X171970975Y-92128554D01*
X171829827Y-91992077D01*
X171771158Y-91903218D01*
X171753729Y-91838170D01*
X171760108Y-91731881D01*
X171807727Y-91649403D01*
X171896586Y-91590734D01*
X171961635Y-91573304D01*
X172067923Y-91579684D01*
X172274119Y-91698731D01*
X172374028Y-91811399D01*
X172686512Y-91936827D02*
X172392709Y-92921900D01*
X172914809Y-92398548D01*
X172722623Y-93112376D01*
X173428820Y-92365398D01*
X173669876Y-92614543D02*
X173734925Y-92597113D01*
X173841213Y-92603493D01*
X174047409Y-92722541D01*
X174106078Y-92811399D01*
X174123508Y-92876448D01*
X174117128Y-92982736D01*
X174069509Y-93065215D01*
X173956841Y-93165123D01*
X173176256Y-93374281D01*
X173712367Y-93683804D01*
X174494662Y-93090734D02*
X174559711Y-93073304D01*
X174665999Y-93079684D01*
X174872195Y-93198731D01*
X174930864Y-93287590D01*
X174948294Y-93352638D01*
X174941915Y-93458927D01*
X174894295Y-93541405D01*
X174781628Y-93641314D01*
X174001042Y-93850471D01*
X174537153Y-94159995D01*
X168325895Y-82713580D02*
X168325895Y-83523104D01*
X168373514Y-83618342D01*
X168421133Y-83665961D01*
X168516371Y-83713580D01*
X168706847Y-83713580D01*
X168802085Y-83665961D01*
X168849704Y-83618342D01*
X168897323Y-83523104D01*
X168897323Y-82713580D01*
X169897323Y-83713580D02*
X169325895Y-83713580D01*
X169611609Y-83713580D02*
X169611609Y-82713580D01*
X169516371Y-82856438D01*
X169421133Y-82951676D01*
X169325895Y-82999295D01*
X172645342Y-83199266D02*
X172692961Y-83246885D01*
X172740580Y-83389742D01*
X172740580Y-83484980D01*
X172692961Y-83627838D01*
X172597723Y-83723076D01*
X172502485Y-83770695D01*
X172312009Y-83818314D01*
X172169152Y-83818314D01*
X171978676Y-83770695D01*
X171883438Y-83723076D01*
X171788200Y-83627838D01*
X171740580Y-83484980D01*
X171740580Y-83389742D01*
X171788200Y-83246885D01*
X171835819Y-83199266D01*
X172740580Y-82246885D02*
X172740580Y-82818314D01*
X172740580Y-82532600D02*
X171740580Y-82532600D01*
X171883438Y-82627838D01*
X171978676Y-82723076D01*
X172026295Y-82818314D01*
X174423342Y-83199266D02*
X174470961Y-83246885D01*
X174518580Y-83389742D01*
X174518580Y-83484980D01*
X174470961Y-83627838D01*
X174375723Y-83723076D01*
X174280485Y-83770695D01*
X174090009Y-83818314D01*
X173947152Y-83818314D01*
X173756676Y-83770695D01*
X173661438Y-83723076D01*
X173566200Y-83627838D01*
X173518580Y-83484980D01*
X173518580Y-83389742D01*
X173566200Y-83246885D01*
X173613819Y-83199266D01*
X173613819Y-82818314D02*
X173566200Y-82770695D01*
X173518580Y-82675457D01*
X173518580Y-82437361D01*
X173566200Y-82342123D01*
X173613819Y-82294504D01*
X173709057Y-82246885D01*
X173804295Y-82246885D01*
X173947152Y-82294504D01*
X174518580Y-82865933D01*
X174518580Y-82246885D01*
X165111133Y-82805542D02*
X165063514Y-82853161D01*
X164920657Y-82900780D01*
X164825419Y-82900780D01*
X164682561Y-82853161D01*
X164587323Y-82757923D01*
X164539704Y-82662685D01*
X164492085Y-82472209D01*
X164492085Y-82329352D01*
X164539704Y-82138876D01*
X164587323Y-82043638D01*
X164682561Y-81948400D01*
X164825419Y-81900780D01*
X164920657Y-81900780D01*
X165063514Y-81948400D01*
X165111133Y-81996019D01*
X165444466Y-81900780D02*
X166063514Y-81900780D01*
X165730180Y-82281733D01*
X165873038Y-82281733D01*
X165968276Y-82329352D01*
X166015895Y-82376971D01*
X166063514Y-82472209D01*
X166063514Y-82710304D01*
X166015895Y-82805542D01*
X165968276Y-82853161D01*
X165873038Y-82900780D01*
X165587323Y-82900780D01*
X165492085Y-82853161D01*
X165444466Y-82805542D01*
X165136533Y-79859142D02*
X165088914Y-79906761D01*
X164946057Y-79954380D01*
X164850819Y-79954380D01*
X164707961Y-79906761D01*
X164612723Y-79811523D01*
X164565104Y-79716285D01*
X164517485Y-79525809D01*
X164517485Y-79382952D01*
X164565104Y-79192476D01*
X164612723Y-79097238D01*
X164707961Y-79002000D01*
X164850819Y-78954380D01*
X164946057Y-78954380D01*
X165088914Y-79002000D01*
X165136533Y-79049619D01*
X165993676Y-79287714D02*
X165993676Y-79954380D01*
X165755580Y-78906761D02*
X165517485Y-79621047D01*
X166136533Y-79621047D01*
X175566342Y-72937666D02*
X175613961Y-72985285D01*
X175661580Y-73128142D01*
X175661580Y-73223380D01*
X175613961Y-73366238D01*
X175518723Y-73461476D01*
X175423485Y-73509095D01*
X175233009Y-73556714D01*
X175090152Y-73556714D01*
X174899676Y-73509095D01*
X174804438Y-73461476D01*
X174709200Y-73366238D01*
X174661580Y-73223380D01*
X174661580Y-73128142D01*
X174709200Y-72985285D01*
X174756819Y-72937666D01*
X174661580Y-72032904D02*
X174661580Y-72509095D01*
X175137771Y-72556714D01*
X175090152Y-72509095D01*
X175042533Y-72413857D01*
X175042533Y-72175761D01*
X175090152Y-72080523D01*
X175137771Y-72032904D01*
X175233009Y-71985285D01*
X175471104Y-71985285D01*
X175566342Y-72032904D01*
X175613961Y-72080523D01*
X175661580Y-72175761D01*
X175661580Y-72413857D01*
X175613961Y-72509095D01*
X175566342Y-72556714D01*
X165136533Y-81332342D02*
X165088914Y-81379961D01*
X164946057Y-81427580D01*
X164850819Y-81427580D01*
X164707961Y-81379961D01*
X164612723Y-81284723D01*
X164565104Y-81189485D01*
X164517485Y-80999009D01*
X164517485Y-80856152D01*
X164565104Y-80665676D01*
X164612723Y-80570438D01*
X164707961Y-80475200D01*
X164850819Y-80427580D01*
X164946057Y-80427580D01*
X165088914Y-80475200D01*
X165136533Y-80522819D01*
X165993676Y-80427580D02*
X165803200Y-80427580D01*
X165707961Y-80475200D01*
X165660342Y-80522819D01*
X165565104Y-80665676D01*
X165517485Y-80856152D01*
X165517485Y-81237104D01*
X165565104Y-81332342D01*
X165612723Y-81379961D01*
X165707961Y-81427580D01*
X165898438Y-81427580D01*
X165993676Y-81379961D01*
X166041295Y-81332342D01*
X166088914Y-81237104D01*
X166088914Y-80999009D01*
X166041295Y-80903771D01*
X165993676Y-80856152D01*
X165898438Y-80808533D01*
X165707961Y-80808533D01*
X165612723Y-80856152D01*
X165565104Y-80903771D01*
X165517485Y-80999009D01*
X173991542Y-72937666D02*
X174039161Y-72985285D01*
X174086780Y-73128142D01*
X174086780Y-73223380D01*
X174039161Y-73366238D01*
X173943923Y-73461476D01*
X173848685Y-73509095D01*
X173658209Y-73556714D01*
X173515352Y-73556714D01*
X173324876Y-73509095D01*
X173229638Y-73461476D01*
X173134400Y-73366238D01*
X173086780Y-73223380D01*
X173086780Y-73128142D01*
X173134400Y-72985285D01*
X173182019Y-72937666D01*
X173086780Y-72604333D02*
X173086780Y-71937666D01*
X174086780Y-72366238D01*
X176350633Y-44794442D02*
X176303014Y-44842061D01*
X176160157Y-44889680D01*
X176064919Y-44889680D01*
X175922061Y-44842061D01*
X175826823Y-44746823D01*
X175779204Y-44651585D01*
X175731585Y-44461109D01*
X175731585Y-44318252D01*
X175779204Y-44127776D01*
X175826823Y-44032538D01*
X175922061Y-43937300D01*
X176064919Y-43889680D01*
X176160157Y-43889680D01*
X176303014Y-43937300D01*
X176350633Y-43984919D01*
X176922061Y-44318252D02*
X176826823Y-44270633D01*
X176779204Y-44223014D01*
X176731585Y-44127776D01*
X176731585Y-44080157D01*
X176779204Y-43984919D01*
X176826823Y-43937300D01*
X176922061Y-43889680D01*
X177112538Y-43889680D01*
X177207776Y-43937300D01*
X177255395Y-43984919D01*
X177303014Y-44080157D01*
X177303014Y-44127776D01*
X177255395Y-44223014D01*
X177207776Y-44270633D01*
X177112538Y-44318252D01*
X176922061Y-44318252D01*
X176826823Y-44365871D01*
X176779204Y-44413490D01*
X176731585Y-44508728D01*
X176731585Y-44699204D01*
X176779204Y-44794442D01*
X176826823Y-44842061D01*
X176922061Y-44889680D01*
X177112538Y-44889680D01*
X177207776Y-44842061D01*
X177255395Y-44794442D01*
X177303014Y-44699204D01*
X177303014Y-44508728D01*
X177255395Y-44413490D01*
X177207776Y-44365871D01*
X177112538Y-44318252D01*
X168717933Y-39346142D02*
X168670314Y-39393761D01*
X168527457Y-39441380D01*
X168432219Y-39441380D01*
X168289361Y-39393761D01*
X168194123Y-39298523D01*
X168146504Y-39203285D01*
X168098885Y-39012809D01*
X168098885Y-38869952D01*
X168146504Y-38679476D01*
X168194123Y-38584238D01*
X168289361Y-38489000D01*
X168432219Y-38441380D01*
X168527457Y-38441380D01*
X168670314Y-38489000D01*
X168717933Y-38536619D01*
X169194123Y-39441380D02*
X169384600Y-39441380D01*
X169479838Y-39393761D01*
X169527457Y-39346142D01*
X169622695Y-39203285D01*
X169670314Y-39012809D01*
X169670314Y-38631857D01*
X169622695Y-38536619D01*
X169575076Y-38489000D01*
X169479838Y-38441380D01*
X169289361Y-38441380D01*
X169194123Y-38489000D01*
X169146504Y-38536619D01*
X169098885Y-38631857D01*
X169098885Y-38869952D01*
X169146504Y-38965190D01*
X169194123Y-39012809D01*
X169289361Y-39060428D01*
X169479838Y-39060428D01*
X169575076Y-39012809D01*
X169622695Y-38965190D01*
X169670314Y-38869952D01*
X164314142Y-43975257D02*
X164361761Y-44022876D01*
X164409380Y-44165733D01*
X164409380Y-44260971D01*
X164361761Y-44403828D01*
X164266523Y-44499066D01*
X164171285Y-44546685D01*
X163980809Y-44594304D01*
X163837952Y-44594304D01*
X163647476Y-44546685D01*
X163552238Y-44499066D01*
X163457000Y-44403828D01*
X163409380Y-44260971D01*
X163409380Y-44165733D01*
X163457000Y-44022876D01*
X163504619Y-43975257D01*
X164409380Y-43022876D02*
X164409380Y-43594304D01*
X164409380Y-43308590D02*
X163409380Y-43308590D01*
X163552238Y-43403828D01*
X163647476Y-43499066D01*
X163695095Y-43594304D01*
X163409380Y-42403828D02*
X163409380Y-42308590D01*
X163457000Y-42213352D01*
X163504619Y-42165733D01*
X163599857Y-42118114D01*
X163790333Y-42070495D01*
X164028428Y-42070495D01*
X164218904Y-42118114D01*
X164314142Y-42165733D01*
X164361761Y-42213352D01*
X164409380Y-42308590D01*
X164409380Y-42403828D01*
X164361761Y-42499066D01*
X164314142Y-42546685D01*
X164218904Y-42594304D01*
X164028428Y-42641923D01*
X163790333Y-42641923D01*
X163599857Y-42594304D01*
X163504619Y-42546685D01*
X163457000Y-42499066D01*
X163409380Y-42403828D01*
X162806142Y-53544742D02*
X162758523Y-53592361D01*
X162615666Y-53639980D01*
X162520428Y-53639980D01*
X162377571Y-53592361D01*
X162282333Y-53497123D01*
X162234714Y-53401885D01*
X162187095Y-53211409D01*
X162187095Y-53068552D01*
X162234714Y-52878076D01*
X162282333Y-52782838D01*
X162377571Y-52687600D01*
X162520428Y-52639980D01*
X162615666Y-52639980D01*
X162758523Y-52687600D01*
X162806142Y-52735219D01*
X163758523Y-53639980D02*
X163187095Y-53639980D01*
X163472809Y-53639980D02*
X163472809Y-52639980D01*
X163377571Y-52782838D01*
X163282333Y-52878076D01*
X163187095Y-52925695D01*
X164091857Y-52639980D02*
X164710904Y-52639980D01*
X164377571Y-53020933D01*
X164520428Y-53020933D01*
X164615666Y-53068552D01*
X164663285Y-53116171D01*
X164710904Y-53211409D01*
X164710904Y-53449504D01*
X164663285Y-53544742D01*
X164615666Y-53592361D01*
X164520428Y-53639980D01*
X164234714Y-53639980D01*
X164139476Y-53592361D01*
X164091857Y-53544742D01*
X163018742Y-48318657D02*
X163066361Y-48366276D01*
X163113980Y-48509133D01*
X163113980Y-48604371D01*
X163066361Y-48747228D01*
X162971123Y-48842466D01*
X162875885Y-48890085D01*
X162685409Y-48937704D01*
X162542552Y-48937704D01*
X162352076Y-48890085D01*
X162256838Y-48842466D01*
X162161600Y-48747228D01*
X162113980Y-48604371D01*
X162113980Y-48509133D01*
X162161600Y-48366276D01*
X162209219Y-48318657D01*
X163113980Y-47366276D02*
X163113980Y-47937704D01*
X163113980Y-47651990D02*
X162113980Y-47651990D01*
X162256838Y-47747228D01*
X162352076Y-47842466D01*
X162399695Y-47937704D01*
X162447314Y-46509133D02*
X163113980Y-46509133D01*
X162066361Y-46747228D02*
X162780647Y-46985323D01*
X162780647Y-46366276D01*
X177512742Y-50674542D02*
X177465123Y-50722161D01*
X177322266Y-50769780D01*
X177227028Y-50769780D01*
X177084171Y-50722161D01*
X176988933Y-50626923D01*
X176941314Y-50531685D01*
X176893695Y-50341209D01*
X176893695Y-50198352D01*
X176941314Y-50007876D01*
X176988933Y-49912638D01*
X177084171Y-49817400D01*
X177227028Y-49769780D01*
X177322266Y-49769780D01*
X177465123Y-49817400D01*
X177512742Y-49865019D01*
X178465123Y-50769780D02*
X177893695Y-50769780D01*
X178179409Y-50769780D02*
X178179409Y-49769780D01*
X178084171Y-49912638D01*
X177988933Y-50007876D01*
X177893695Y-50055495D01*
X179369885Y-49769780D02*
X178893695Y-49769780D01*
X178846076Y-50245971D01*
X178893695Y-50198352D01*
X178988933Y-50150733D01*
X179227028Y-50150733D01*
X179322266Y-50198352D01*
X179369885Y-50245971D01*
X179417504Y-50341209D01*
X179417504Y-50579304D01*
X179369885Y-50674542D01*
X179322266Y-50722161D01*
X179227028Y-50769780D01*
X178988933Y-50769780D01*
X178893695Y-50722161D01*
X178846076Y-50674542D01*
X163653742Y-64498457D02*
X163701361Y-64546076D01*
X163748980Y-64688933D01*
X163748980Y-64784171D01*
X163701361Y-64927028D01*
X163606123Y-65022266D01*
X163510885Y-65069885D01*
X163320409Y-65117504D01*
X163177552Y-65117504D01*
X162987076Y-65069885D01*
X162891838Y-65022266D01*
X162796600Y-64927028D01*
X162748980Y-64784171D01*
X162748980Y-64688933D01*
X162796600Y-64546076D01*
X162844219Y-64498457D01*
X163748980Y-63546076D02*
X163748980Y-64117504D01*
X163748980Y-63831790D02*
X162748980Y-63831790D01*
X162891838Y-63927028D01*
X162987076Y-64022266D01*
X163034695Y-64117504D01*
X162748980Y-62688933D02*
X162748980Y-62879409D01*
X162796600Y-62974647D01*
X162844219Y-63022266D01*
X162987076Y-63117504D01*
X163177552Y-63165123D01*
X163558504Y-63165123D01*
X163653742Y-63117504D01*
X163701361Y-63069885D01*
X163748980Y-62974647D01*
X163748980Y-62784171D01*
X163701361Y-62688933D01*
X163653742Y-62641314D01*
X163558504Y-62593695D01*
X163320409Y-62593695D01*
X163225171Y-62641314D01*
X163177552Y-62688933D01*
X163129933Y-62784171D01*
X163129933Y-62974647D01*
X163177552Y-63069885D01*
X163225171Y-63117504D01*
X163320409Y-63165123D01*
X162180542Y-65311257D02*
X162228161Y-65358876D01*
X162275780Y-65501733D01*
X162275780Y-65596971D01*
X162228161Y-65739828D01*
X162132923Y-65835066D01*
X162037685Y-65882685D01*
X161847209Y-65930304D01*
X161704352Y-65930304D01*
X161513876Y-65882685D01*
X161418638Y-65835066D01*
X161323400Y-65739828D01*
X161275780Y-65596971D01*
X161275780Y-65501733D01*
X161323400Y-65358876D01*
X161371019Y-65311257D01*
X162275780Y-64358876D02*
X162275780Y-64930304D01*
X162275780Y-64644590D02*
X161275780Y-64644590D01*
X161418638Y-64739828D01*
X161513876Y-64835066D01*
X161561495Y-64930304D01*
X161275780Y-64025542D02*
X161275780Y-63358876D01*
X162275780Y-63787447D01*
X174109142Y-56554642D02*
X174061523Y-56602261D01*
X173918666Y-56649880D01*
X173823428Y-56649880D01*
X173680571Y-56602261D01*
X173585333Y-56507023D01*
X173537714Y-56411785D01*
X173490095Y-56221309D01*
X173490095Y-56078452D01*
X173537714Y-55887976D01*
X173585333Y-55792738D01*
X173680571Y-55697500D01*
X173823428Y-55649880D01*
X173918666Y-55649880D01*
X174061523Y-55697500D01*
X174109142Y-55745119D01*
X175061523Y-56649880D02*
X174490095Y-56649880D01*
X174775809Y-56649880D02*
X174775809Y-55649880D01*
X174680571Y-55792738D01*
X174585333Y-55887976D01*
X174490095Y-55935595D01*
X175632952Y-56078452D02*
X175537714Y-56030833D01*
X175490095Y-55983214D01*
X175442476Y-55887976D01*
X175442476Y-55840357D01*
X175490095Y-55745119D01*
X175537714Y-55697500D01*
X175632952Y-55649880D01*
X175823428Y-55649880D01*
X175918666Y-55697500D01*
X175966285Y-55745119D01*
X176013904Y-55840357D01*
X176013904Y-55887976D01*
X175966285Y-55983214D01*
X175918666Y-56030833D01*
X175823428Y-56078452D01*
X175632952Y-56078452D01*
X175537714Y-56126071D01*
X175490095Y-56173690D01*
X175442476Y-56268928D01*
X175442476Y-56459404D01*
X175490095Y-56554642D01*
X175537714Y-56602261D01*
X175632952Y-56649880D01*
X175823428Y-56649880D01*
X175918666Y-56602261D01*
X175966285Y-56554642D01*
X176013904Y-56459404D01*
X176013904Y-56268928D01*
X175966285Y-56173690D01*
X175918666Y-56126071D01*
X175823428Y-56078452D01*
X67127380Y-39282595D02*
X66127380Y-39282595D01*
X66127380Y-39044500D01*
X66175000Y-38901642D01*
X66270238Y-38806404D01*
X66365476Y-38758785D01*
X66555952Y-38711166D01*
X66698809Y-38711166D01*
X66889285Y-38758785D01*
X66984523Y-38806404D01*
X67079761Y-38901642D01*
X67127380Y-39044500D01*
X67127380Y-39282595D01*
X67127380Y-37758785D02*
X67127380Y-38330214D01*
X67127380Y-38044500D02*
X66127380Y-38044500D01*
X66270238Y-38139738D01*
X66365476Y-38234976D01*
X66413095Y-38330214D01*
X67190880Y-58078595D02*
X66190880Y-58078595D01*
X66190880Y-57840500D01*
X66238500Y-57697642D01*
X66333738Y-57602404D01*
X66428976Y-57554785D01*
X66619452Y-57507166D01*
X66762309Y-57507166D01*
X66952785Y-57554785D01*
X67048023Y-57602404D01*
X67143261Y-57697642D01*
X67190880Y-57840500D01*
X67190880Y-58078595D01*
X66286119Y-57126214D02*
X66238500Y-57078595D01*
X66190880Y-56983357D01*
X66190880Y-56745261D01*
X66238500Y-56650023D01*
X66286119Y-56602404D01*
X66381357Y-56554785D01*
X66476595Y-56554785D01*
X66619452Y-56602404D01*
X67190880Y-57173833D01*
X67190880Y-56554785D01*
X67190880Y-76938095D02*
X66190880Y-76938095D01*
X66190880Y-76700000D01*
X66238500Y-76557142D01*
X66333738Y-76461904D01*
X66428976Y-76414285D01*
X66619452Y-76366666D01*
X66762309Y-76366666D01*
X66952785Y-76414285D01*
X67048023Y-76461904D01*
X67143261Y-76557142D01*
X67190880Y-76700000D01*
X67190880Y-76938095D01*
X66190880Y-76033333D02*
X66190880Y-75414285D01*
X66571833Y-75747619D01*
X66571833Y-75604761D01*
X66619452Y-75509523D01*
X66667071Y-75461904D01*
X66762309Y-75414285D01*
X67000404Y-75414285D01*
X67095642Y-75461904D01*
X67143261Y-75509523D01*
X67190880Y-75604761D01*
X67190880Y-75890476D01*
X67143261Y-75985714D01*
X67095642Y-76033333D01*
X86177380Y-39155595D02*
X85177380Y-39155595D01*
X85177380Y-38917500D01*
X85225000Y-38774642D01*
X85320238Y-38679404D01*
X85415476Y-38631785D01*
X85605952Y-38584166D01*
X85748809Y-38584166D01*
X85939285Y-38631785D01*
X86034523Y-38679404D01*
X86129761Y-38774642D01*
X86177380Y-38917500D01*
X86177380Y-39155595D01*
X85510714Y-37727023D02*
X86177380Y-37727023D01*
X85129761Y-37965119D02*
X85844047Y-38203214D01*
X85844047Y-37584166D01*
X86240880Y-57951595D02*
X85240880Y-57951595D01*
X85240880Y-57713500D01*
X85288500Y-57570642D01*
X85383738Y-57475404D01*
X85478976Y-57427785D01*
X85669452Y-57380166D01*
X85812309Y-57380166D01*
X86002785Y-57427785D01*
X86098023Y-57475404D01*
X86193261Y-57570642D01*
X86240880Y-57713500D01*
X86240880Y-57951595D01*
X85240880Y-56475404D02*
X85240880Y-56951595D01*
X85717071Y-56999214D01*
X85669452Y-56951595D01*
X85621833Y-56856357D01*
X85621833Y-56618261D01*
X85669452Y-56523023D01*
X85717071Y-56475404D01*
X85812309Y-56427785D01*
X86050404Y-56427785D01*
X86145642Y-56475404D01*
X86193261Y-56523023D01*
X86240880Y-56618261D01*
X86240880Y-56856357D01*
X86193261Y-56951595D01*
X86145642Y-56999214D01*
X86240880Y-76938095D02*
X85240880Y-76938095D01*
X85240880Y-76700000D01*
X85288500Y-76557142D01*
X85383738Y-76461904D01*
X85478976Y-76414285D01*
X85669452Y-76366666D01*
X85812309Y-76366666D01*
X86002785Y-76414285D01*
X86098023Y-76461904D01*
X86193261Y-76557142D01*
X86240880Y-76700000D01*
X86240880Y-76938095D01*
X85240880Y-75509523D02*
X85240880Y-75700000D01*
X85288500Y-75795238D01*
X85336119Y-75842857D01*
X85478976Y-75938095D01*
X85669452Y-75985714D01*
X86050404Y-75985714D01*
X86145642Y-75938095D01*
X86193261Y-75890476D01*
X86240880Y-75795238D01*
X86240880Y-75604761D01*
X86193261Y-75509523D01*
X86145642Y-75461904D01*
X86050404Y-75414285D01*
X85812309Y-75414285D01*
X85717071Y-75461904D01*
X85669452Y-75509523D01*
X85621833Y-75604761D01*
X85621833Y-75795238D01*
X85669452Y-75890476D01*
X85717071Y-75938095D01*
X85812309Y-75985714D01*
X105189280Y-36329845D02*
X104189280Y-36329845D01*
X104189280Y-36091750D01*
X104236900Y-35948892D01*
X104332138Y-35853654D01*
X104427376Y-35806035D01*
X104617852Y-35758416D01*
X104760709Y-35758416D01*
X104951185Y-35806035D01*
X105046423Y-35853654D01*
X105141661Y-35948892D01*
X105189280Y-36091750D01*
X105189280Y-36329845D01*
X104189280Y-35425083D02*
X104189280Y-34758416D01*
X105189280Y-35186988D01*
X105227380Y-55760845D02*
X104227380Y-55760845D01*
X104227380Y-55522750D01*
X104275000Y-55379892D01*
X104370238Y-55284654D01*
X104465476Y-55237035D01*
X104655952Y-55189416D01*
X104798809Y-55189416D01*
X104989285Y-55237035D01*
X105084523Y-55284654D01*
X105179761Y-55379892D01*
X105227380Y-55522750D01*
X105227380Y-55760845D01*
X104655952Y-54617988D02*
X104608333Y-54713226D01*
X104560714Y-54760845D01*
X104465476Y-54808464D01*
X104417857Y-54808464D01*
X104322619Y-54760845D01*
X104275000Y-54713226D01*
X104227380Y-54617988D01*
X104227380Y-54427511D01*
X104275000Y-54332273D01*
X104322619Y-54284654D01*
X104417857Y-54237035D01*
X104465476Y-54237035D01*
X104560714Y-54284654D01*
X104608333Y-54332273D01*
X104655952Y-54427511D01*
X104655952Y-54617988D01*
X104703571Y-54713226D01*
X104751190Y-54760845D01*
X104846428Y-54808464D01*
X105036904Y-54808464D01*
X105132142Y-54760845D01*
X105179761Y-54713226D01*
X105227380Y-54617988D01*
X105227380Y-54427511D01*
X105179761Y-54332273D01*
X105132142Y-54284654D01*
X105036904Y-54237035D01*
X104846428Y-54237035D01*
X104751190Y-54284654D01*
X104703571Y-54332273D01*
X104655952Y-54427511D01*
X105290880Y-74810845D02*
X104290880Y-74810845D01*
X104290880Y-74572750D01*
X104338500Y-74429892D01*
X104433738Y-74334654D01*
X104528976Y-74287035D01*
X104719452Y-74239416D01*
X104862309Y-74239416D01*
X105052785Y-74287035D01*
X105148023Y-74334654D01*
X105243261Y-74429892D01*
X105290880Y-74572750D01*
X105290880Y-74810845D01*
X105290880Y-73763226D02*
X105290880Y-73572750D01*
X105243261Y-73477511D01*
X105195642Y-73429892D01*
X105052785Y-73334654D01*
X104862309Y-73287035D01*
X104481357Y-73287035D01*
X104386119Y-73334654D01*
X104338500Y-73382273D01*
X104290880Y-73477511D01*
X104290880Y-73667988D01*
X104338500Y-73763226D01*
X104386119Y-73810845D01*
X104481357Y-73858464D01*
X104719452Y-73858464D01*
X104814690Y-73810845D01*
X104862309Y-73763226D01*
X104909928Y-73667988D01*
X104909928Y-73477511D01*
X104862309Y-73382273D01*
X104814690Y-73334654D01*
X104719452Y-73287035D01*
X124340880Y-34488285D02*
X123340880Y-34488285D01*
X123340880Y-34250190D01*
X123388500Y-34107333D01*
X123483738Y-34012095D01*
X123578976Y-33964476D01*
X123769452Y-33916857D01*
X123912309Y-33916857D01*
X124102785Y-33964476D01*
X124198023Y-34012095D01*
X124293261Y-34107333D01*
X124340880Y-34250190D01*
X124340880Y-34488285D01*
X124340880Y-32964476D02*
X124340880Y-33535904D01*
X124340880Y-33250190D02*
X123340880Y-33250190D01*
X123483738Y-33345428D01*
X123578976Y-33440666D01*
X123626595Y-33535904D01*
X123340880Y-32345428D02*
X123340880Y-32250190D01*
X123388500Y-32154952D01*
X123436119Y-32107333D01*
X123531357Y-32059714D01*
X123721833Y-32012095D01*
X123959928Y-32012095D01*
X124150404Y-32059714D01*
X124245642Y-32107333D01*
X124293261Y-32154952D01*
X124340880Y-32250190D01*
X124340880Y-32345428D01*
X124293261Y-32440666D01*
X124245642Y-32488285D01*
X124150404Y-32535904D01*
X123959928Y-32583523D01*
X123721833Y-32583523D01*
X123531357Y-32535904D01*
X123436119Y-32488285D01*
X123388500Y-32440666D01*
X123340880Y-32345428D01*
X124277380Y-53474785D02*
X123277380Y-53474785D01*
X123277380Y-53236690D01*
X123325000Y-53093833D01*
X123420238Y-52998595D01*
X123515476Y-52950976D01*
X123705952Y-52903357D01*
X123848809Y-52903357D01*
X124039285Y-52950976D01*
X124134523Y-52998595D01*
X124229761Y-53093833D01*
X124277380Y-53236690D01*
X124277380Y-53474785D01*
X124277380Y-51950976D02*
X124277380Y-52522404D01*
X124277380Y-52236690D02*
X123277380Y-52236690D01*
X123420238Y-52331928D01*
X123515476Y-52427166D01*
X123563095Y-52522404D01*
X124277380Y-50998595D02*
X124277380Y-51570023D01*
X124277380Y-51284309D02*
X123277380Y-51284309D01*
X123420238Y-51379547D01*
X123515476Y-51474785D01*
X123563095Y-51570023D01*
X124277380Y-72588285D02*
X123277380Y-72588285D01*
X123277380Y-72350190D01*
X123325000Y-72207333D01*
X123420238Y-72112095D01*
X123515476Y-72064476D01*
X123705952Y-72016857D01*
X123848809Y-72016857D01*
X124039285Y-72064476D01*
X124134523Y-72112095D01*
X124229761Y-72207333D01*
X124277380Y-72350190D01*
X124277380Y-72588285D01*
X124277380Y-71064476D02*
X124277380Y-71635904D01*
X124277380Y-71350190D02*
X123277380Y-71350190D01*
X123420238Y-71445428D01*
X123515476Y-71540666D01*
X123563095Y-71635904D01*
X123372619Y-70683523D02*
X123325000Y-70635904D01*
X123277380Y-70540666D01*
X123277380Y-70302571D01*
X123325000Y-70207333D01*
X123372619Y-70159714D01*
X123467857Y-70112095D01*
X123563095Y-70112095D01*
X123705952Y-70159714D01*
X124277380Y-70731142D01*
X124277380Y-70112095D01*
X133865880Y-96273785D02*
X132865880Y-96273785D01*
X132865880Y-96035690D01*
X132913500Y-95892833D01*
X133008738Y-95797595D01*
X133103976Y-95749976D01*
X133294452Y-95702357D01*
X133437309Y-95702357D01*
X133627785Y-95749976D01*
X133723023Y-95797595D01*
X133818261Y-95892833D01*
X133865880Y-96035690D01*
X133865880Y-96273785D01*
X133865880Y-94749976D02*
X133865880Y-95321404D01*
X133865880Y-95035690D02*
X132865880Y-95035690D01*
X133008738Y-95130928D01*
X133103976Y-95226166D01*
X133151595Y-95321404D01*
X132865880Y-94416642D02*
X132865880Y-93797595D01*
X133246833Y-94130928D01*
X133246833Y-93988071D01*
X133294452Y-93892833D01*
X133342071Y-93845214D01*
X133437309Y-93797595D01*
X133675404Y-93797595D01*
X133770642Y-93845214D01*
X133818261Y-93892833D01*
X133865880Y-93988071D01*
X133865880Y-94273785D01*
X133818261Y-94369023D01*
X133770642Y-94416642D01*
X143327380Y-36679035D02*
X142327380Y-36679035D01*
X142327380Y-36440940D01*
X142375000Y-36298083D01*
X142470238Y-36202845D01*
X142565476Y-36155226D01*
X142755952Y-36107607D01*
X142898809Y-36107607D01*
X143089285Y-36155226D01*
X143184523Y-36202845D01*
X143279761Y-36298083D01*
X143327380Y-36440940D01*
X143327380Y-36679035D01*
X143327380Y-35155226D02*
X143327380Y-35726654D01*
X143327380Y-35440940D02*
X142327380Y-35440940D01*
X142470238Y-35536178D01*
X142565476Y-35631416D01*
X142613095Y-35726654D01*
X142660714Y-34298083D02*
X143327380Y-34298083D01*
X142279761Y-34536178D02*
X142994047Y-34774273D01*
X142994047Y-34155226D01*
X143327380Y-55602035D02*
X142327380Y-55602035D01*
X142327380Y-55363940D01*
X142375000Y-55221083D01*
X142470238Y-55125845D01*
X142565476Y-55078226D01*
X142755952Y-55030607D01*
X142898809Y-55030607D01*
X143089285Y-55078226D01*
X143184523Y-55125845D01*
X143279761Y-55221083D01*
X143327380Y-55363940D01*
X143327380Y-55602035D01*
X143327380Y-54078226D02*
X143327380Y-54649654D01*
X143327380Y-54363940D02*
X142327380Y-54363940D01*
X142470238Y-54459178D01*
X142565476Y-54554416D01*
X142613095Y-54649654D01*
X142327380Y-53173464D02*
X142327380Y-53649654D01*
X142803571Y-53697273D01*
X142755952Y-53649654D01*
X142708333Y-53554416D01*
X142708333Y-53316321D01*
X142755952Y-53221083D01*
X142803571Y-53173464D01*
X142898809Y-53125845D01*
X143136904Y-53125845D01*
X143232142Y-53173464D01*
X143279761Y-53221083D01*
X143327380Y-53316321D01*
X143327380Y-53554416D01*
X143279761Y-53649654D01*
X143232142Y-53697273D01*
X143327380Y-75033035D02*
X142327380Y-75033035D01*
X142327380Y-74794940D01*
X142375000Y-74652083D01*
X142470238Y-74556845D01*
X142565476Y-74509226D01*
X142755952Y-74461607D01*
X142898809Y-74461607D01*
X143089285Y-74509226D01*
X143184523Y-74556845D01*
X143279761Y-74652083D01*
X143327380Y-74794940D01*
X143327380Y-75033035D01*
X143327380Y-73509226D02*
X143327380Y-74080654D01*
X143327380Y-73794940D02*
X142327380Y-73794940D01*
X142470238Y-73890178D01*
X142565476Y-73985416D01*
X142613095Y-74080654D01*
X142327380Y-72652083D02*
X142327380Y-72842559D01*
X142375000Y-72937797D01*
X142422619Y-72985416D01*
X142565476Y-73080654D01*
X142755952Y-73128273D01*
X143136904Y-73128273D01*
X143232142Y-73080654D01*
X143279761Y-73033035D01*
X143327380Y-72937797D01*
X143327380Y-72747321D01*
X143279761Y-72652083D01*
X143232142Y-72604464D01*
X143136904Y-72556845D01*
X142898809Y-72556845D01*
X142803571Y-72604464D01*
X142755952Y-72652083D01*
X142708333Y-72747321D01*
X142708333Y-72937797D01*
X142755952Y-73033035D01*
X142803571Y-73080654D01*
X142898809Y-73128273D01*
X155767536Y-100254744D02*
X154801610Y-99995925D01*
X154863233Y-99765943D01*
X154946204Y-99640278D01*
X155062846Y-99572935D01*
X155167164Y-99551588D01*
X155363475Y-99554890D01*
X155501464Y-99591864D01*
X155673125Y-99687160D01*
X155752793Y-99757805D01*
X155820137Y-99874448D01*
X155829159Y-100024762D01*
X155767536Y-100254744D01*
X156161927Y-98782857D02*
X156014030Y-99334815D01*
X156087978Y-99058836D02*
X155122052Y-98800017D01*
X155235392Y-98928984D01*
X155302736Y-99045626D01*
X155324083Y-99149944D01*
X155282274Y-98202063D02*
X155454820Y-97558112D01*
X156309823Y-98230900D01*
X162440880Y-39187285D02*
X161440880Y-39187285D01*
X161440880Y-38949190D01*
X161488500Y-38806333D01*
X161583738Y-38711095D01*
X161678976Y-38663476D01*
X161869452Y-38615857D01*
X162012309Y-38615857D01*
X162202785Y-38663476D01*
X162298023Y-38711095D01*
X162393261Y-38806333D01*
X162440880Y-38949190D01*
X162440880Y-39187285D01*
X162440880Y-37663476D02*
X162440880Y-38234904D01*
X162440880Y-37949190D02*
X161440880Y-37949190D01*
X161583738Y-38044428D01*
X161678976Y-38139666D01*
X161726595Y-38234904D01*
X161869452Y-37092047D02*
X161821833Y-37187285D01*
X161774214Y-37234904D01*
X161678976Y-37282523D01*
X161631357Y-37282523D01*
X161536119Y-37234904D01*
X161488500Y-37187285D01*
X161440880Y-37092047D01*
X161440880Y-36901571D01*
X161488500Y-36806333D01*
X161536119Y-36758714D01*
X161631357Y-36711095D01*
X161678976Y-36711095D01*
X161774214Y-36758714D01*
X161821833Y-36806333D01*
X161869452Y-36901571D01*
X161869452Y-37092047D01*
X161917071Y-37187285D01*
X161964690Y-37234904D01*
X162059928Y-37282523D01*
X162250404Y-37282523D01*
X162345642Y-37234904D01*
X162393261Y-37187285D01*
X162440880Y-37092047D01*
X162440880Y-36901571D01*
X162393261Y-36806333D01*
X162345642Y-36758714D01*
X162250404Y-36711095D01*
X162059928Y-36711095D01*
X161964690Y-36758714D01*
X161917071Y-36806333D01*
X161869452Y-36901571D01*
X162301180Y-58389685D02*
X161301180Y-58389685D01*
X161301180Y-58151590D01*
X161348800Y-58008733D01*
X161444038Y-57913495D01*
X161539276Y-57865876D01*
X161729752Y-57818257D01*
X161872609Y-57818257D01*
X162063085Y-57865876D01*
X162158323Y-57913495D01*
X162253561Y-58008733D01*
X162301180Y-58151590D01*
X162301180Y-58389685D01*
X162301180Y-56865876D02*
X162301180Y-57437304D01*
X162301180Y-57151590D02*
X161301180Y-57151590D01*
X161444038Y-57246828D01*
X161539276Y-57342066D01*
X161586895Y-57437304D01*
X162301180Y-56389685D02*
X162301180Y-56199209D01*
X162253561Y-56103971D01*
X162205942Y-56056352D01*
X162063085Y-55961114D01*
X161872609Y-55913495D01*
X161491657Y-55913495D01*
X161396419Y-55961114D01*
X161348800Y-56008733D01*
X161301180Y-56103971D01*
X161301180Y-56294447D01*
X161348800Y-56389685D01*
X161396419Y-56437304D01*
X161491657Y-56484923D01*
X161729752Y-56484923D01*
X161824990Y-56437304D01*
X161872609Y-56389685D01*
X161920228Y-56294447D01*
X161920228Y-56103971D01*
X161872609Y-56008733D01*
X161824990Y-55961114D01*
X161729752Y-55913495D01*
X162402780Y-84119885D02*
X161402780Y-84119885D01*
X161402780Y-83881790D01*
X161450400Y-83738933D01*
X161545638Y-83643695D01*
X161640876Y-83596076D01*
X161831352Y-83548457D01*
X161974209Y-83548457D01*
X162164685Y-83596076D01*
X162259923Y-83643695D01*
X162355161Y-83738933D01*
X162402780Y-83881790D01*
X162402780Y-84119885D01*
X161498019Y-83167504D02*
X161450400Y-83119885D01*
X161402780Y-83024647D01*
X161402780Y-82786552D01*
X161450400Y-82691314D01*
X161498019Y-82643695D01*
X161593257Y-82596076D01*
X161688495Y-82596076D01*
X161831352Y-82643695D01*
X162402780Y-83215123D01*
X162402780Y-82596076D01*
X161402780Y-81977028D02*
X161402780Y-81881790D01*
X161450400Y-81786552D01*
X161498019Y-81738933D01*
X161593257Y-81691314D01*
X161783733Y-81643695D01*
X162021828Y-81643695D01*
X162212304Y-81691314D01*
X162307542Y-81738933D01*
X162355161Y-81786552D01*
X162402780Y-81881790D01*
X162402780Y-81977028D01*
X162355161Y-82072266D01*
X162307542Y-82119885D01*
X162212304Y-82167504D01*
X162021828Y-82215123D01*
X161783733Y-82215123D01*
X161593257Y-82167504D01*
X161498019Y-82119885D01*
X161450400Y-82072266D01*
X161402780Y-81977028D01*
X177711630Y-105464441D02*
X176845605Y-104964441D01*
X176964652Y-104758245D01*
X177077320Y-104658336D01*
X177207418Y-104623477D01*
X177313706Y-104629857D01*
X177502473Y-104683855D01*
X177626191Y-104755284D01*
X177767338Y-104891761D01*
X177826007Y-104980620D01*
X177860867Y-105110717D01*
X177830678Y-105258245D01*
X177711630Y-105464441D01*
X177404274Y-104187274D02*
X177386844Y-104122225D01*
X177393224Y-104015937D01*
X177512271Y-103809741D01*
X177601130Y-103751072D01*
X177666178Y-103733642D01*
X177772467Y-103740022D01*
X177854945Y-103787641D01*
X177954854Y-103900309D01*
X178164011Y-104680894D01*
X178473535Y-104144783D01*
X178949725Y-103319997D02*
X178664011Y-103814869D01*
X178806868Y-103567433D02*
X177940843Y-103067433D01*
X178016942Y-103221340D01*
X178051801Y-103351438D01*
X178045421Y-103457726D01*
X160829666Y-28001230D02*
X160829666Y-28715516D01*
X160782047Y-28858373D01*
X160686809Y-28953611D01*
X160543952Y-29001230D01*
X160448714Y-29001230D01*
X161829666Y-29001230D02*
X161258238Y-29001230D01*
X161543952Y-29001230D02*
X161543952Y-28001230D01*
X161448714Y-28144088D01*
X161353476Y-28239326D01*
X161258238Y-28286945D01*
X185924866Y-53090380D02*
X185924866Y-53804666D01*
X185877247Y-53947523D01*
X185782009Y-54042761D01*
X185639152Y-54090380D01*
X185543914Y-54090380D01*
X186353438Y-53185619D02*
X186401057Y-53138000D01*
X186496295Y-53090380D01*
X186734390Y-53090380D01*
X186829628Y-53138000D01*
X186877247Y-53185619D01*
X186924866Y-53280857D01*
X186924866Y-53376095D01*
X186877247Y-53518952D01*
X186305819Y-54090380D01*
X186924866Y-54090380D01*
X162631380Y-69457866D02*
X162631380Y-69934057D01*
X161631380Y-69934057D01*
X162631380Y-68600723D02*
X162631380Y-69172152D01*
X162631380Y-68886438D02*
X161631380Y-68886438D01*
X161774238Y-68981676D01*
X161869476Y-69076914D01*
X161917095Y-69172152D01*
X175166280Y-42165566D02*
X175166280Y-42641757D01*
X174166280Y-42641757D01*
X174261519Y-41879852D02*
X174213900Y-41832233D01*
X174166280Y-41736995D01*
X174166280Y-41498900D01*
X174213900Y-41403661D01*
X174261519Y-41356042D01*
X174356757Y-41308423D01*
X174451995Y-41308423D01*
X174594852Y-41356042D01*
X175166280Y-41927471D01*
X175166280Y-41308423D01*
X164637980Y-48452066D02*
X164637980Y-48928257D01*
X163637980Y-48928257D01*
X163637980Y-48213971D02*
X163637980Y-47594923D01*
X164018933Y-47928257D01*
X164018933Y-47785400D01*
X164066552Y-47690161D01*
X164114171Y-47642542D01*
X164209409Y-47594923D01*
X164447504Y-47594923D01*
X164542742Y-47642542D01*
X164590361Y-47690161D01*
X164637980Y-47785400D01*
X164637980Y-48071114D01*
X164590361Y-48166352D01*
X164542742Y-48213971D01*
X166787533Y-48940980D02*
X166311342Y-48940980D01*
X166311342Y-47940980D01*
X167549438Y-48274314D02*
X167549438Y-48940980D01*
X167311342Y-47893361D02*
X167073247Y-48607647D01*
X167692295Y-48607647D01*
X174077333Y-58173880D02*
X173601142Y-58173880D01*
X173601142Y-57173880D01*
X174886857Y-57173880D02*
X174410666Y-57173880D01*
X174363047Y-57650071D01*
X174410666Y-57602452D01*
X174505904Y-57554833D01*
X174744000Y-57554833D01*
X174839238Y-57602452D01*
X174886857Y-57650071D01*
X174934476Y-57745309D01*
X174934476Y-57983404D01*
X174886857Y-58078642D01*
X174839238Y-58126261D01*
X174744000Y-58173880D01*
X174505904Y-58173880D01*
X174410666Y-58126261D01*
X174363047Y-58078642D01*
X180554333Y-53982880D02*
X180221000Y-53506690D01*
X179982904Y-53982880D02*
X179982904Y-52982880D01*
X180363857Y-52982880D01*
X180459095Y-53030500D01*
X180506714Y-53078119D01*
X180554333Y-53173357D01*
X180554333Y-53316214D01*
X180506714Y-53411452D01*
X180459095Y-53459071D01*
X180363857Y-53506690D01*
X179982904Y-53506690D01*
X181506714Y-53982880D02*
X180935285Y-53982880D01*
X181221000Y-53982880D02*
X181221000Y-52982880D01*
X181125761Y-53125738D01*
X181030523Y-53220976D01*
X180935285Y-53268595D01*
X168895733Y-85034380D02*
X168562400Y-84558190D01*
X168324304Y-85034380D02*
X168324304Y-84034380D01*
X168705257Y-84034380D01*
X168800495Y-84082000D01*
X168848114Y-84129619D01*
X168895733Y-84224857D01*
X168895733Y-84367714D01*
X168848114Y-84462952D01*
X168800495Y-84510571D01*
X168705257Y-84558190D01*
X168324304Y-84558190D01*
X169276685Y-84129619D02*
X169324304Y-84082000D01*
X169419542Y-84034380D01*
X169657638Y-84034380D01*
X169752876Y-84082000D01*
X169800495Y-84129619D01*
X169848114Y-84224857D01*
X169848114Y-84320095D01*
X169800495Y-84462952D01*
X169229066Y-85034380D01*
X169848114Y-85034380D01*
X182798980Y-46978866D02*
X182322790Y-47312200D01*
X182798980Y-47550295D02*
X181798980Y-47550295D01*
X181798980Y-47169342D01*
X181846600Y-47074104D01*
X181894219Y-47026485D01*
X181989457Y-46978866D01*
X182132314Y-46978866D01*
X182227552Y-47026485D01*
X182275171Y-47074104D01*
X182322790Y-47169342D01*
X182322790Y-47550295D01*
X181798980Y-46645533D02*
X181798980Y-46026485D01*
X182179933Y-46359819D01*
X182179933Y-46216961D01*
X182227552Y-46121723D01*
X182275171Y-46074104D01*
X182370409Y-46026485D01*
X182608504Y-46026485D01*
X182703742Y-46074104D01*
X182751361Y-46121723D01*
X182798980Y-46216961D01*
X182798980Y-46502676D01*
X182751361Y-46597914D01*
X182703742Y-46645533D01*
X181046380Y-46978866D02*
X180570190Y-47312200D01*
X181046380Y-47550295D02*
X180046380Y-47550295D01*
X180046380Y-47169342D01*
X180094000Y-47074104D01*
X180141619Y-47026485D01*
X180236857Y-46978866D01*
X180379714Y-46978866D01*
X180474952Y-47026485D01*
X180522571Y-47074104D01*
X180570190Y-47169342D01*
X180570190Y-47550295D01*
X180379714Y-46121723D02*
X181046380Y-46121723D01*
X179998761Y-46359819D02*
X180713047Y-46597914D01*
X180713047Y-45978866D01*
X163739533Y-55316380D02*
X163406200Y-54840190D01*
X163168104Y-55316380D02*
X163168104Y-54316380D01*
X163549057Y-54316380D01*
X163644295Y-54364000D01*
X163691914Y-54411619D01*
X163739533Y-54506857D01*
X163739533Y-54649714D01*
X163691914Y-54744952D01*
X163644295Y-54792571D01*
X163549057Y-54840190D01*
X163168104Y-54840190D01*
X164644295Y-54316380D02*
X164168104Y-54316380D01*
X164120485Y-54792571D01*
X164168104Y-54744952D01*
X164263342Y-54697333D01*
X164501438Y-54697333D01*
X164596676Y-54744952D01*
X164644295Y-54792571D01*
X164691914Y-54887809D01*
X164691914Y-55125904D01*
X164644295Y-55221142D01*
X164596676Y-55268761D01*
X164501438Y-55316380D01*
X164263342Y-55316380D01*
X164168104Y-55268761D01*
X164120485Y-55221142D01*
X163676033Y-59139080D02*
X163342700Y-58662890D01*
X163104604Y-59139080D02*
X163104604Y-58139080D01*
X163485557Y-58139080D01*
X163580795Y-58186700D01*
X163628414Y-58234319D01*
X163676033Y-58329557D01*
X163676033Y-58472414D01*
X163628414Y-58567652D01*
X163580795Y-58615271D01*
X163485557Y-58662890D01*
X163104604Y-58662890D01*
X164533176Y-58139080D02*
X164342700Y-58139080D01*
X164247461Y-58186700D01*
X164199842Y-58234319D01*
X164104604Y-58377176D01*
X164056985Y-58567652D01*
X164056985Y-58948604D01*
X164104604Y-59043842D01*
X164152223Y-59091461D01*
X164247461Y-59139080D01*
X164437938Y-59139080D01*
X164533176Y-59091461D01*
X164580795Y-59043842D01*
X164628414Y-58948604D01*
X164628414Y-58710509D01*
X164580795Y-58615271D01*
X164533176Y-58567652D01*
X164437938Y-58520033D01*
X164247461Y-58520033D01*
X164152223Y-58567652D01*
X164104604Y-58615271D01*
X164056985Y-58710509D01*
X183703933Y-52319180D02*
X183370600Y-51842990D01*
X183132504Y-52319180D02*
X183132504Y-51319180D01*
X183513457Y-51319180D01*
X183608695Y-51366800D01*
X183656314Y-51414419D01*
X183703933Y-51509657D01*
X183703933Y-51652514D01*
X183656314Y-51747752D01*
X183608695Y-51795371D01*
X183513457Y-51842990D01*
X183132504Y-51842990D01*
X184180123Y-52319180D02*
X184370600Y-52319180D01*
X184465838Y-52271561D01*
X184513457Y-52223942D01*
X184608695Y-52081085D01*
X184656314Y-51890609D01*
X184656314Y-51509657D01*
X184608695Y-51414419D01*
X184561076Y-51366800D01*
X184465838Y-51319180D01*
X184275361Y-51319180D01*
X184180123Y-51366800D01*
X184132504Y-51414419D01*
X184084885Y-51509657D01*
X184084885Y-51747752D01*
X184132504Y-51842990D01*
X184180123Y-51890609D01*
X184275361Y-51938228D01*
X184465838Y-51938228D01*
X184561076Y-51890609D01*
X184608695Y-51842990D01*
X184656314Y-51747752D01*
X174061380Y-70683357D02*
X173585190Y-71016690D01*
X174061380Y-71254785D02*
X173061380Y-71254785D01*
X173061380Y-70873833D01*
X173109000Y-70778595D01*
X173156619Y-70730976D01*
X173251857Y-70683357D01*
X173394714Y-70683357D01*
X173489952Y-70730976D01*
X173537571Y-70778595D01*
X173585190Y-70873833D01*
X173585190Y-71254785D01*
X174061380Y-69730976D02*
X174061380Y-70302404D01*
X174061380Y-70016690D02*
X173061380Y-70016690D01*
X173204238Y-70111928D01*
X173299476Y-70207166D01*
X173347095Y-70302404D01*
X173061380Y-69111928D02*
X173061380Y-69016690D01*
X173109000Y-68921452D01*
X173156619Y-68873833D01*
X173251857Y-68826214D01*
X173442333Y-68778595D01*
X173680428Y-68778595D01*
X173870904Y-68826214D01*
X173966142Y-68873833D01*
X174013761Y-68921452D01*
X174061380Y-69016690D01*
X174061380Y-69111928D01*
X174013761Y-69207166D01*
X173966142Y-69254785D01*
X173870904Y-69302404D01*
X173680428Y-69350023D01*
X173442333Y-69350023D01*
X173251857Y-69302404D01*
X173156619Y-69254785D01*
X173109000Y-69207166D01*
X173061380Y-69111928D01*
X175521880Y-70683357D02*
X175045690Y-71016690D01*
X175521880Y-71254785D02*
X174521880Y-71254785D01*
X174521880Y-70873833D01*
X174569500Y-70778595D01*
X174617119Y-70730976D01*
X174712357Y-70683357D01*
X174855214Y-70683357D01*
X174950452Y-70730976D01*
X174998071Y-70778595D01*
X175045690Y-70873833D01*
X175045690Y-71254785D01*
X175521880Y-69730976D02*
X175521880Y-70302404D01*
X175521880Y-70016690D02*
X174521880Y-70016690D01*
X174664738Y-70111928D01*
X174759976Y-70207166D01*
X174807595Y-70302404D01*
X175521880Y-68778595D02*
X175521880Y-69350023D01*
X175521880Y-69064309D02*
X174521880Y-69064309D01*
X174664738Y-69159547D01*
X174759976Y-69254785D01*
X174807595Y-69350023D01*
X176560105Y-67375007D02*
X176083915Y-67708340D01*
X176560105Y-67946435D02*
X175560105Y-67946435D01*
X175560105Y-67565483D01*
X175607725Y-67470245D01*
X175655344Y-67422626D01*
X175750582Y-67375007D01*
X175893439Y-67375007D01*
X175988677Y-67422626D01*
X176036296Y-67470245D01*
X176083915Y-67565483D01*
X176083915Y-67946435D01*
X176560105Y-66422626D02*
X176560105Y-66994054D01*
X176560105Y-66708340D02*
X175560105Y-66708340D01*
X175702963Y-66803578D01*
X175798201Y-66898816D01*
X175845820Y-66994054D01*
X175655344Y-66041673D02*
X175607725Y-65994054D01*
X175560105Y-65898816D01*
X175560105Y-65660721D01*
X175607725Y-65565483D01*
X175655344Y-65517864D01*
X175750582Y-65470245D01*
X175845820Y-65470245D01*
X175988677Y-65517864D01*
X176560105Y-66089292D01*
X176560105Y-65470245D01*
X176547405Y-64161907D02*
X176071215Y-64495240D01*
X176547405Y-64733335D02*
X175547405Y-64733335D01*
X175547405Y-64352383D01*
X175595025Y-64257145D01*
X175642644Y-64209526D01*
X175737882Y-64161907D01*
X175880739Y-64161907D01*
X175975977Y-64209526D01*
X176023596Y-64257145D01*
X176071215Y-64352383D01*
X176071215Y-64733335D01*
X176547405Y-63209526D02*
X176547405Y-63780954D01*
X176547405Y-63495240D02*
X175547405Y-63495240D01*
X175690263Y-63590478D01*
X175785501Y-63685716D01*
X175833120Y-63780954D01*
X175547405Y-62876192D02*
X175547405Y-62257145D01*
X175928358Y-62590478D01*
X175928358Y-62447621D01*
X175975977Y-62352383D01*
X176023596Y-62304764D01*
X176118834Y-62257145D01*
X176356929Y-62257145D01*
X176452167Y-62304764D01*
X176499786Y-62352383D01*
X176547405Y-62447621D01*
X176547405Y-62733335D01*
X176499786Y-62828573D01*
X176452167Y-62876192D01*
X176547405Y-60974207D02*
X176071215Y-61307540D01*
X176547405Y-61545635D02*
X175547405Y-61545635D01*
X175547405Y-61164683D01*
X175595025Y-61069445D01*
X175642644Y-61021826D01*
X175737882Y-60974207D01*
X175880739Y-60974207D01*
X175975977Y-61021826D01*
X176023596Y-61069445D01*
X176071215Y-61164683D01*
X176071215Y-61545635D01*
X176547405Y-60021826D02*
X176547405Y-60593254D01*
X176547405Y-60307540D02*
X175547405Y-60307540D01*
X175690263Y-60402778D01*
X175785501Y-60498016D01*
X175833120Y-60593254D01*
X175880739Y-59164683D02*
X176547405Y-59164683D01*
X175499786Y-59402778D02*
X176214072Y-59640873D01*
X176214072Y-59021826D01*
X179423961Y-75171133D02*
X179471580Y-75028276D01*
X179471580Y-74790180D01*
X179423961Y-74694942D01*
X179376342Y-74647323D01*
X179281104Y-74599704D01*
X179185866Y-74599704D01*
X179090628Y-74647323D01*
X179043009Y-74694942D01*
X178995390Y-74790180D01*
X178947771Y-74980657D01*
X178900152Y-75075895D01*
X178852533Y-75123514D01*
X178757295Y-75171133D01*
X178662057Y-75171133D01*
X178566819Y-75123514D01*
X178519200Y-75075895D01*
X178471580Y-74980657D01*
X178471580Y-74742561D01*
X178519200Y-74599704D01*
X178471580Y-74266371D02*
X179471580Y-74028276D01*
X178757295Y-73837800D01*
X179471580Y-73647323D01*
X178471580Y-73409228D01*
X179471580Y-72504466D02*
X179471580Y-73075895D01*
X179471580Y-72790180D02*
X178471580Y-72790180D01*
X178614438Y-72885419D01*
X178709676Y-72980657D01*
X178757295Y-73075895D01*
X176820580Y-48996504D02*
X177630104Y-48996504D01*
X177725342Y-48948885D01*
X177772961Y-48901266D01*
X177820580Y-48806028D01*
X177820580Y-48615552D01*
X177772961Y-48520314D01*
X177725342Y-48472695D01*
X177630104Y-48425076D01*
X176820580Y-48425076D01*
X176820580Y-48044123D02*
X176820580Y-47425076D01*
X177201533Y-47758409D01*
X177201533Y-47615552D01*
X177249152Y-47520314D01*
X177296771Y-47472695D01*
X177392009Y-47425076D01*
X177630104Y-47425076D01*
X177725342Y-47472695D01*
X177772961Y-47520314D01*
X177820580Y-47615552D01*
X177820580Y-47901266D01*
X177772961Y-47996504D01*
X177725342Y-48044123D01*
X166751095Y-59840880D02*
X166751095Y-60650404D01*
X166798714Y-60745642D01*
X166846333Y-60793261D01*
X166941571Y-60840880D01*
X167132047Y-60840880D01*
X167227285Y-60793261D01*
X167274904Y-60745642D01*
X167322523Y-60650404D01*
X167322523Y-59840880D01*
X168227285Y-60174214D02*
X168227285Y-60840880D01*
X167989190Y-59793261D02*
X167751095Y-60507547D01*
X168370142Y-60507547D01*
X165703309Y-40641590D02*
X165703309Y-41117780D01*
X165369976Y-40117780D02*
X165703309Y-40641590D01*
X166036642Y-40117780D01*
X166893785Y-41117780D02*
X166322357Y-41117780D01*
X166608071Y-41117780D02*
X166608071Y-40117780D01*
X166512833Y-40260638D01*
X166417595Y-40355876D01*
X166322357Y-40403495D01*
X47447295Y-33573980D02*
X47447295Y-32573980D01*
X47447295Y-33050171D02*
X48018723Y-33050171D01*
X48018723Y-33573980D02*
X48018723Y-32573980D01*
X49018723Y-33573980D02*
X48447295Y-33573980D01*
X48733009Y-33573980D02*
X48733009Y-32573980D01*
X48637771Y-32716838D01*
X48542533Y-32812076D01*
X48447295Y-32859695D01*
X184975595Y-33548580D02*
X184975595Y-32548580D01*
X184975595Y-33024771D02*
X185547023Y-33024771D01*
X185547023Y-33548580D02*
X185547023Y-32548580D01*
X185975595Y-32643819D02*
X186023214Y-32596200D01*
X186118452Y-32548580D01*
X186356547Y-32548580D01*
X186451785Y-32596200D01*
X186499404Y-32643819D01*
X186547023Y-32739057D01*
X186547023Y-32834295D01*
X186499404Y-32977152D01*
X185927976Y-33548580D01*
X186547023Y-33548580D01*
X168592595Y-115298880D02*
X168592595Y-114298880D01*
X168592595Y-114775071D02*
X169164023Y-114775071D01*
X169164023Y-115298880D02*
X169164023Y-114298880D01*
X169544976Y-114298880D02*
X170164023Y-114298880D01*
X169830690Y-114679833D01*
X169973547Y-114679833D01*
X170068785Y-114727452D01*
X170116404Y-114775071D01*
X170164023Y-114870309D01*
X170164023Y-115108404D01*
X170116404Y-115203642D01*
X170068785Y-115251261D01*
X169973547Y-115298880D01*
X169687833Y-115298880D01*
X169592595Y-115251261D01*
X169544976Y-115203642D01*
X111156845Y-82977380D02*
X111156845Y-81977380D01*
X111156845Y-82453571D02*
X111728273Y-82453571D01*
X111728273Y-82977380D02*
X111728273Y-81977380D01*
X112633035Y-82310714D02*
X112633035Y-82977380D01*
X112394940Y-81929761D02*
X112156845Y-82644047D01*
X112775892Y-82644047D01*
X177720666Y-68819780D02*
X177720666Y-69534066D01*
X177673047Y-69676923D01*
X177577809Y-69772161D01*
X177434952Y-69819780D01*
X177339714Y-69819780D01*
X178101619Y-68819780D02*
X178720666Y-68819780D01*
X178387333Y-69200733D01*
X178530190Y-69200733D01*
X178625428Y-69248352D01*
X178673047Y-69295971D01*
X178720666Y-69391209D01*
X178720666Y-69629304D01*
X178673047Y-69724542D01*
X178625428Y-69772161D01*
X178530190Y-69819780D01*
X178244476Y-69819780D01*
X178149238Y-69772161D01*
X178101619Y-69724542D01*
X48053720Y-81786755D02*
X48053720Y-80786755D01*
X48053720Y-81262946D02*
X48625148Y-81262946D01*
X48625148Y-81786755D02*
X48625148Y-80786755D01*
X49577529Y-80786755D02*
X49101339Y-80786755D01*
X49053720Y-81262946D01*
X49101339Y-81215327D01*
X49196577Y-81167708D01*
X49434672Y-81167708D01*
X49529910Y-81215327D01*
X49577529Y-81262946D01*
X49625148Y-81358184D01*
X49625148Y-81596279D01*
X49577529Y-81691517D01*
X49529910Y-81739136D01*
X49434672Y-81786755D01*
X49196577Y-81786755D01*
X49101339Y-81739136D01*
X49053720Y-81691517D01*
X182062595Y-58316880D02*
X182634023Y-58316880D01*
X182348309Y-59316880D02*
X182348309Y-58316880D01*
X182967357Y-59316880D02*
X182967357Y-58316880D01*
X183348309Y-58316880D01*
X183443547Y-58364500D01*
X183491166Y-58412119D01*
X183538785Y-58507357D01*
X183538785Y-58650214D01*
X183491166Y-58745452D01*
X183443547Y-58793071D01*
X183348309Y-58840690D01*
X182967357Y-58840690D01*
X183872119Y-58316880D02*
X184491166Y-58316880D01*
X184157833Y-58697833D01*
X184300690Y-58697833D01*
X184395928Y-58745452D01*
X184443547Y-58793071D01*
X184491166Y-58888309D01*
X184491166Y-59126404D01*
X184443547Y-59221642D01*
X184395928Y-59269261D01*
X184300690Y-59316880D01*
X184014976Y-59316880D01*
X183919738Y-59269261D01*
X183872119Y-59221642D01*
M02*
