M48
INCH,LZ
T1C0.0670
T2C0.0866
T3C0.1181
T4C0.1570
%
G90
G05
T1
X0205Y-03
X0245Y-03
X028Y-015
X032Y-015
X028Y-03
X032Y-03
X0355Y-021563
X0395Y-021563
X028Y-0225
X032Y-0225
X0355Y-014063
X0395Y-014063
X0205Y-0225
X0245Y-0225
X0355Y-029063
X0395Y-029063
X043Y-020625
X047Y-020625
X0205Y-015
X0245Y-015
X043Y-028125
X047Y-028125
X043Y-013125
X047Y-013125
X0505Y-021563
X0545Y-021563
X04675Y-0375
X05075Y-0375
X0505Y-029063
X0545Y-029063
X0505Y-014063
X0545Y-014063
X058Y-0225
X062Y-0225
X058Y-03
X062Y-03
X058Y-015
X062Y-015
X06483Y-038375
X068295Y-040375
X055724Y-037451
X059588Y-038486
T2
X044063Y-03375
X073125Y-011719
X019219Y-033281
X066675Y-046475
X019219Y-011719
T3
X056173Y-039642
X058846Y-039323
X0215Y-032
X024Y-031
X029Y-017
X0315Y-016
X029Y-032
X0315Y-031
X0365Y-023562
X039Y-022563
X029Y-0245
X0315Y-0235
X0365Y-016063
X039Y-015062
X0215Y-0245
X024Y-0235
X0365Y-031062
X039Y-030063
X044Y-022625
X0465Y-021625
X0215Y-017
X024Y-016
X044Y-030125
X0465Y-029125
X044Y-015125
X0465Y-014125
X0515Y-023562
X054Y-022563
X04775Y-0395
X05025Y-0385
X0515Y-031062
X054Y-030063
X0515Y-016063
X054Y-015062
X059Y-0245
X0615Y-0235
X059Y-032
X0615Y-031
X059Y-017
X0615Y-016
X064696Y-040607
X067362Y-040991
T4
X03Y-015
X03Y-03
X0375Y-021563
X03Y-0225
X0375Y-014063
X0225Y-0225
X0375Y-029063
X045Y-020625
X0225Y-015
X045Y-028125
X045Y-013125
X0525Y-021563
X04875Y-0375
X0525Y-029063
X0525Y-014063
X06Y-0225
X06Y-03
X06Y-015
X066563Y-039375
X057656Y-037969
X0225Y-03
T0
M30
