M48
INCH,LZ
T1C0.0100
T2C0.0236
T3C0.0240
T4C0.0276
T5C0.0335
T6C0.0394
T7C0.0590
%
G90
G05
T1
X057524Y-033534
X06151Y-04071
X06225Y-027525
X06301Y-03728
X06343Y-0381
X063595Y-020435
X06361Y-03294
X06417Y-03174
X06417Y-03218
X06418Y-03054
X06419Y-0299
X06426Y-0244
X06484Y-02191
X06485Y-02089
X06499Y-02466
X06507Y-01632
X065085Y-02264
X06556Y-02397
X065591Y-032209
X06577Y-03202
X06577Y-03239
X065795Y-01597
X0658Y-02397
X06604Y-02397
X06611Y-022095
X06611Y-022335
X06611Y-022575
X06639Y-01814
X0664Y-0214
X06646Y-02934
X06646Y-02964
X06646Y-02994
X06655Y-026
X0666Y-0212
X06676Y-02934
X06676Y-02964
X06676Y-02994
X0668Y-02101
X066875Y-032645
X06688Y-03318
X06689Y-02042
X066901Y-018119
X067Y-02083
X06702Y-02473
X06702Y-025
X06702Y-02527
X06704Y-02174
X06706Y-02934
X06706Y-02964
X06706Y-02994
X06723Y-03378
X06725Y-02191
X0673Y-02473
X0673Y-025
X0673Y-02527
X06732Y-02728
X06744Y-03117
X06747Y-01734
X06747Y-02174
X06748Y-01676
X06749Y-01873
X06749Y-01923
X06749Y-01973
X06757Y-02473
X06757Y-025
X06757Y-02527
X06758Y-01621
X067584Y-015877
X067659Y-015555
X06768Y-01696
X06777Y-02174
X067824Y-015267
X06793Y-024
X06795Y-02918
X06797Y-02596
X06799Y-02157
X06802Y-02981
X06805Y-01873
X06805Y-01923
X06805Y-01973
X068066Y-01504
X06811Y-02432
X06831Y-03005
X06835Y-02498
X068362Y-014892
X06852Y-03268
X06861Y-01873
X06861Y-01923
X06861Y-01973
X06861Y-02198
X06867Y-01592
X06867Y-01621
X068689Y-014836
X0687Y-02157
X068785Y-030625
X06888Y-03268
X06891Y-03039
X06897Y-02176
X068985Y-01592
X06899Y-014835
X06912Y-01748
X06921Y-02041
X069285Y-01592
X06929Y-011235
X06929Y-011535
X06929Y-011835
X06929Y-012135
X06929Y-012435
X06929Y-012735
X06929Y-013035
X06929Y-013335
X06929Y-013635
X06929Y-013935
X06929Y-014235
X06929Y-014535
X06929Y-014835
X069435Y-021415
X069565Y-015925
X06979Y-01268
X069865Y-01592
X070139Y-019989
X070165Y-01592
X0703Y-0197
X070465Y-015925
X07048Y-01873
X07048Y-0194
X070765Y-015925
X071065Y-015925
X071365Y-015925
X07137Y-02195
X07137Y-02221
X07137Y-02247
X071482Y-028168
X071482Y-029948
X07152Y-02077
X071665Y-015925
X071965Y-015925
X072265Y-015925
X072565Y-015925
X07277Y-02751
X072865Y-015925
X073165Y-015925
X073465Y-015925
X073765Y-015925
T3
X06323Y-02989
X06324Y-02854
X06391Y-02807
X06445Y-01359
T4
X06951Y-03095
X06951Y-03215
T5
X064666Y-012803
X066634Y-012803
T6
X07333Y-0172
X07333Y-0182
X07333Y-0192
X07333Y-0202
X07007Y-0222
X07007Y-0232
X07007Y-0242
X07007Y-0252
X07007Y-0262
T7
X0285Y-014
X031Y-013
X0285Y-029
X031Y-028
X036Y-020563
X0385Y-019563
X0285Y-0215
X031Y-0205
X036Y-013063
X0385Y-012063
X021Y-0215
X0235Y-0205
X036Y-028063
X0385Y-027063
X0435Y-019625
X046Y-018625
X021Y-014
X0235Y-013
X0435Y-027125
X046Y-026125
X0435Y-012125
X046Y-011125
X051Y-020563
X0535Y-019563
X04725Y-0365
X04975Y-0355
X051Y-028063
X0535Y-027063
X051Y-013063
X0535Y-012063
X0585Y-0215
X061Y-0205
X0585Y-029
X061Y-028
X0585Y-014
X061Y-013
X065763Y-037759
X068429Y-038143
X056466Y-036615
X05914Y-036296
X021Y-029
X0235Y-028
T2
G00X064272Y-011878
M15
G01X064272Y-011602
M16
G05
G00X067028Y-011602
M15
G01X067028Y-011878
M16
G05
T0
M30
